<svg width="855" height="738" viewBox="0 0 855 738" fill="none" xmlns="http://www.w3.org/2000/svg">
<path fill-rule="evenodd" clip-rule="evenodd" d="M625.558 441.177L74.1609 368.207L73.0135 376.878C91.517 391.031 102.146 414.607 98.8391 439.593C95.5326 464.578 79.1371 484.579 57.5892 493.431L51.5714 538.904C70.0749 553.057 80.7035 576.634 77.397 601.62C74.0905 626.605 57.6951 646.606 36.1471 655.458L34.9999 664.127L586.397 737.097L625.558 441.177Z" fill="#B0BEE0"/>
<mask id="path-2-inside-1_478_392" fill="white">
<path fill-rule="evenodd" clip-rule="evenodd" d="M625.558 441.177L103.195 356.574L93.1289 401.972C98.394 413.295 100.605 426.242 98.8387 439.592C96.5143 457.157 87.7211 472.258 75.2167 482.754L60.8558 547.52C73.4821 561.686 80.1014 581.181 77.3967 601.619C74.1341 626.273 58.1275 646.073 37.0017 655.099L34.9999 664.127L586.397 737.097L625.558 441.177Z"/>
</mask>
<path d="M103.195 356.574L100.266 355.925L100.879 353.16L103.675 353.613L103.195 356.574ZM625.558 441.177L626.038 438.216L628.914 438.682L628.532 441.571L625.558 441.177ZM93.1289 401.972L90.4087 403.237L89.98 402.315L90.2001 401.323L93.1289 401.972ZM75.2167 482.754L72.2878 482.105L72.5082 481.111L73.2879 480.457L75.2167 482.754ZM60.8558 547.52L58.6164 549.516L57.5945 548.37L57.927 546.871L60.8558 547.52ZM37.0017 655.099L34.0728 654.45L34.4063 652.946L35.8231 652.34L37.0017 655.099ZM34.9999 664.127L34.6063 667.101L31.3628 666.672L32.071 663.478L34.9999 664.127ZM586.397 737.097L589.371 737.49L588.977 740.465L586.003 740.071L586.397 737.097ZM103.675 353.613L626.038 438.216L625.078 444.139L102.716 359.536L103.675 353.613ZM90.2001 401.323L100.266 355.925L106.124 357.224L96.0578 402.622L90.2001 401.323ZM95.8647 439.198C97.5545 426.429 95.4394 414.056 90.4087 403.237L95.8492 400.707C101.349 412.534 103.656 426.056 101.813 439.986L95.8647 439.198ZM73.2879 480.457C85.2371 470.426 93.6417 455.996 95.8647 439.198L101.813 439.986C99.3868 458.318 90.2052 474.09 77.1455 485.052L73.2879 480.457ZM57.927 546.871L72.2878 482.105L78.1456 483.404L63.7847 548.17L57.927 546.871ZM74.4226 601.225C77.0089 581.682 70.6814 563.052 58.6164 549.516L63.0953 545.524C76.2829 560.319 83.1938 580.68 80.3708 602.012L74.4226 601.225ZM35.8231 652.34C56.0032 643.718 71.303 624.799 74.4226 601.225L80.3708 602.012C76.9652 627.747 60.2518 648.428 38.1804 657.858L35.8231 652.34ZM32.071 663.478L34.0728 654.45L39.9306 655.749L37.9288 664.776L32.071 663.478ZM586.003 740.071L34.6063 667.101L35.3935 661.153L586.791 734.123L586.003 740.071ZM628.532 441.571L589.371 737.49L583.423 736.703L622.584 440.784L628.532 441.571Z" fill="#F5F5F5" mask="url(#path-2-inside-1_478_392)"/>
<path opacity="0.1" d="M558.18 721.044L569.75 722.575L572.317 703.179L560.747 701.648L558.18 721.044Z" fill="#F5F5F5"/>
<path opacity="0.1" d="M589.706 482.812L601.276 484.343L603.843 464.947L592.273 463.416L589.706 482.812Z" fill="#F5F5F5"/>
<path opacity="0.1" d="M524.15 716.54L535.72 718.071L538.287 698.675L526.717 697.144L524.15 716.54Z" fill="#F5F5F5"/>
<path opacity="0.1" d="M555.676 478.309L567.247 479.84L569.813 460.444L558.243 458.913L555.676 478.309Z" fill="#F5F5F5"/>
<path opacity="0.1" d="M491.106 712.167L502.676 713.698L505.243 694.302L493.673 692.771L491.106 712.167Z" fill="#F5F5F5"/>
<path opacity="0.1" d="M522.632 473.936L534.202 475.467L536.769 456.071L525.199 454.54L522.632 473.936Z" fill="#F5F5F5"/>
<path opacity="0.1" d="M458.062 707.795L469.632 709.326L472.199 689.93L460.629 688.399L458.062 707.795Z" fill="#F5F5F5"/>
<path opacity="0.1" d="M489.588 469.563L501.158 471.094L503.725 451.698L492.155 450.167L489.588 469.563Z" fill="#F5F5F5"/>
<path opacity="0.1" d="M424.523 703.355L436.093 704.886L438.66 685.491L427.089 683.959L424.523 703.355Z" fill="#F5F5F5"/>
<path opacity="0.1" d="M456.051 465.124L467.621 466.656L470.188 447.26L458.618 445.728L456.051 465.124Z" fill="#F5F5F5"/>
<path opacity="0.1" d="M391.481 698.983L403.051 700.514L405.618 681.118L394.048 679.587L391.481 698.983Z" fill="#F5F5F5"/>
<path opacity="0.1" d="M423.007 460.752L434.577 462.283L437.144 442.887L425.574 441.356L423.007 460.752Z" fill="#F5F5F5"/>
<path opacity="0.1" d="M358.435 694.61L370.005 696.142L372.572 676.746L361.002 675.215L358.435 694.61Z" fill="#F5F5F5"/>
<path opacity="0.1" d="M389.961 456.379L401.532 457.911L404.098 438.515L392.528 436.984L389.961 456.379Z" fill="#F5F5F5"/>
<path opacity="0.1" d="M325.391 690.237L336.961 691.769L339.528 672.373L327.958 670.841L325.391 690.237Z" fill="#F5F5F5"/>
<path opacity="0.1" d="M356.917 452.006L368.487 453.537L371.054 434.141L359.484 432.61L356.917 452.006Z" fill="#F5F5F5"/>
<path opacity="0.1" d="M291.853 685.798L303.424 687.329L305.99 667.933L294.42 666.402L291.853 685.798Z" fill="#F5F5F5"/>
<path opacity="0.1" d="M323.38 447.568L334.95 449.099L337.517 429.703L325.947 428.172L323.38 447.568Z" fill="#F5F5F5"/>
<path opacity="0.1" d="M258.809 681.425L270.38 682.956L272.946 663.56L261.376 662.029L258.809 681.425Z" fill="#F5F5F5"/>
<path opacity="0.1" d="M290.336 443.194L301.906 444.725L304.473 425.329L292.902 423.798L290.336 443.194Z" fill="#F5F5F5"/>
<path opacity="0.1" d="M225.765 677.052L237.335 678.583L239.902 659.187L228.332 657.656L225.765 677.052Z" fill="#F5F5F5"/>
<path opacity="0.1" d="M257.291 438.821L268.862 440.352L271.428 420.956L259.858 419.425L257.291 438.821Z" fill="#F5F5F5"/>
<path opacity="0.1" d="M192.72 672.68L204.29 674.211L206.857 654.815L195.286 653.284L192.72 672.68Z" fill="#F5F5F5"/>
<path opacity="0.1" d="M224.246 434.45L235.817 435.981L238.383 416.585L226.813 415.054L224.246 434.45Z" fill="#F5F5F5"/>
<path opacity="0.1" d="M159.184 668.241L170.754 669.772L173.321 650.377L161.751 648.845L159.184 668.241Z" fill="#F5F5F5"/>
<path opacity="0.1" d="M190.709 430.01L202.279 431.541L204.846 412.145L193.275 410.614L190.709 430.01Z" fill="#F5F5F5"/>
<path opacity="0.1" d="M126.138 663.869L137.709 665.4L140.275 646.004L128.705 644.473L126.138 663.869Z" fill="#F5F5F5"/>
<path opacity="0.1" d="M157.665 425.638L169.235 427.169L171.802 407.773L160.232 406.242L157.665 425.638Z" fill="#F5F5F5"/>
<path opacity="0.1" d="M93.0942 659.495L104.664 661.027L107.231 641.631L95.661 640.1L93.0942 659.495Z" fill="#F5F5F5"/>
<path opacity="0.1" d="M124.621 421.264L136.191 422.795L138.758 403.399L127.187 401.868L124.621 421.264Z" fill="#F5F5F5"/>
<path fill-rule="evenodd" clip-rule="evenodd" d="M-255.814 536.61L225.873 258.508L221.5 250.933C198.205 250.985 175.412 238.766 162.81 216.939C150.208 195.112 151.023 169.263 162.715 149.115L139.781 109.391C116.485 109.442 93.6921 97.2233 81.0904 75.3966C68.4887 53.5698 69.3032 27.7208 80.9957 7.57223L76.6235 -0.000624293L-405.064 278.102L-255.814 536.61Z" fill="#B0BEE0"/>
<mask id="path-35-inside-2_478_392" fill="white">
<path fill-rule="evenodd" clip-rule="evenodd" d="M-255.814 536.61L209.939 285.422L190.26 243.291C179.186 237.521 169.544 228.601 162.811 216.94C153.952 201.595 151.723 184.263 155.243 168.321L127.169 108.216C108.526 104.676 91.3992 93.2509 81.0912 75.397C68.6567 53.8598 69.2847 28.4065 80.5368 8.37764L76.6235 -0.000624293L-405.064 278.102L-255.814 536.61Z"/>
</mask>
<path d="M209.939 285.422L212.657 284.153L213.855 286.719L211.363 288.063L209.939 285.422ZM-255.814 536.61L-254.39 539.25L-256.955 540.634L-258.412 538.11L-255.814 536.61ZM190.26 243.291L191.646 240.631L192.548 241.1L192.978 242.021L190.26 243.291ZM155.243 168.321L157.961 167.052L158.392 167.974L158.173 168.968L155.243 168.321ZM127.169 108.216L127.729 105.269L129.237 105.555L129.887 106.946L127.169 108.216ZM80.5368 8.37764L83.255 7.10805L83.9069 8.50388L83.1523 9.84703L80.5368 8.37764ZM76.6235 -0.000624293L75.1235 -2.5987L77.957 -4.23463L79.3417 -1.27021L76.6235 -0.000624293ZM-405.064 278.102L-407.662 279.602L-409.162 277.004L-406.564 275.504L-405.064 278.102ZM211.363 288.063L-254.39 539.25L-257.238 533.969L208.514 282.782L211.363 288.063ZM192.978 242.021L212.657 284.153L207.22 286.692L187.542 244.561L192.978 242.021ZM165.409 215.44C171.849 226.595 181.065 235.117 191.646 240.631L188.874 245.951C177.307 239.924 167.238 230.608 160.213 218.44L165.409 215.44ZM158.173 168.968C154.809 184.202 156.937 200.765 165.409 215.44L160.213 218.44C150.967 202.425 148.637 184.324 152.314 167.675L158.173 168.968ZM129.887 106.946L157.961 167.052L152.525 169.591L124.451 109.485L129.887 106.946ZM83.6893 73.897C93.5461 90.9696 109.914 101.886 127.729 105.269L126.61 111.163C107.138 107.466 89.2522 95.5322 78.4931 76.897L83.6893 73.897ZM83.1523 9.84703C72.4039 28.9793 71.7996 53.3036 83.6893 73.897L78.4931 76.897C65.5138 54.4161 66.1655 27.8336 77.9213 6.90825L83.1523 9.84703ZM79.3417 -1.27021L83.255 7.10805L77.8187 9.64722L73.9054 1.26896L79.3417 -1.27021ZM-406.564 275.504L75.1235 -2.5987L78.1235 2.59745L-403.564 280.7L-406.564 275.504ZM-258.412 538.11L-407.662 279.602L-402.466 276.602L-253.216 535.11L-258.412 538.11Z" fill="#F5F5F5" mask="url(#path-35-inside-2_478_392)"/>
<path opacity="0.1" d="M8.76995 330.762L-1.33752 336.597L8.44499 353.541L18.5525 347.705L8.76995 330.762Z" fill="#F5F5F5"/>
<path opacity="0.1" d="M37.6368 314.096L27.5293 319.931L37.3118 336.875L47.4193 331.039L37.6368 314.096Z" fill="#F5F5F5"/>
<path opacity="0.1" d="M66.5029 297.427L56.3954 303.263L66.1779 320.207L76.2854 314.371L66.5029 297.427Z" fill="#F5F5F5"/>
<path opacity="0.1" d="M95.8016 280.514L85.6941 286.349L95.4766 303.293L105.584 297.457L95.8016 280.514Z" fill="#F5F5F5"/>
<path opacity="0.1" d="M4.51324 55.7343L-5.59424 61.5698L4.18827 78.5136L14.2958 72.6781L4.51324 55.7343Z" fill="#F5F5F5"/>
<path opacity="0.1" d="M124.668 263.847L114.56 269.683L124.343 286.626L134.45 280.791L124.668 263.847Z" fill="#F5F5F5"/>
<path opacity="0.1" d="M33.3801 39.0685L23.2726 44.9041L33.0551 61.8479L43.1626 56.0123L33.3801 39.0685Z" fill="#F5F5F5"/>
<path opacity="0.1" d="M153.534 247.181L143.427 253.017L153.209 269.961L163.317 264.125L153.534 247.181Z" fill="#F5F5F5"/>
<path d="M-46.8767 149.72C-48.1507 139.583 -40.9655 130.332 -30.8279 129.058L407.011 74.0325C417.149 72.7585 426.4 79.9438 427.674 90.0813L464.78 385.341C466.054 395.479 458.869 404.73 448.731 406.004L10.8923 461.029C0.75481 462.303 -8.49609 455.118 -9.77011 444.98L-46.8767 149.72Z" fill="#B0BEE0" stroke="#F5F5F5" stroke-width="3"/>
<rect x="-44.3815" y="182.745" width="481.828" height="22.8923" transform="rotate(-7.16306 -44.3815 182.745)" fill="#F5F5F5"/>
<path d="M-350.436 286.021C-348.088 276.077 -338.124 269.919 -328.18 272.266L101.298 373.653C111.242 376 117.4 385.965 115.053 395.909L46.6819 685.53C44.3344 695.474 34.3703 701.632 24.4263 699.285L-405.052 597.898C-414.996 595.551 -421.154 585.587 -418.807 575.643L-350.436 286.021Z" fill="#B0BEE0" stroke="#F5F5F5" stroke-width="3"/>
<rect x="-359.634" y="317.837" width="481.828" height="22.8923" transform="rotate(13.2826 -359.634 317.837)" fill="#F5F5F5"/>
<path d="M431.9 42.1167C437.142 33.3469 448.501 30.4874 457.271 35.7298L836.038 262.15C844.808 267.393 847.667 278.752 842.425 287.522L689.737 542.946C684.494 551.716 673.135 554.576 664.365 549.333L285.598 322.912C276.828 317.67 273.969 306.311 279.211 297.541L431.9 42.1167Z" fill="#B0BEE0" stroke="#F5F5F5" stroke-width="3"/>
<rect x="413.518" y="69.666" width="481.828" height="22.8923" transform="rotate(30.8703 413.518 69.666)" fill="#F5F5F5"/>
</svg>
