<svg width="184" height="19" viewBox="0 0 184 19" fill="none" xmlns="http://www.w3.org/2000/svg">
<path d="M13.9359 19C10.8672 19 8.26637 18.6888 6.13356 18.0664C4.01611 17.444 2.44336 16.5693 1.41532 15.4422C0.387276 14.3152 -0.0807131 12.9989 0.0113503 11.4934L7.26134 10.4588C7.21531 10.6439 7.19229 10.8247 7.19229 11.0013C7.19229 11.6405 7.45314 12.2125 7.97483 12.7171C8.51187 13.2218 9.29441 13.6213 10.3224 13.9157C11.3658 14.2016 12.6317 14.3446 14.1201 14.3446C15.8386 14.3446 17.0891 14.168 17.8716 13.8147C18.6542 13.4531 19.0455 12.9821 19.0455 12.4017C19.0455 11.813 18.6619 11.3504 17.8947 11.0139C17.1428 10.6691 15.946 10.421 14.3042 10.2696L10.7137 9.99203C8.53488 9.87428 6.70896 9.60093 5.23595 9.17198C3.77828 8.74303 2.68886 8.19633 1.9677 7.53187C1.24653 6.85901 0.885952 6.10204 0.885952 5.26096C0.885952 4.15073 1.39997 3.20031 2.42801 2.40969C3.45605 1.61908 4.89071 1.02191 6.73198 0.618194C8.58859 0.206065 10.7444 0 13.1994 0C17.2656 0 20.5185 0.567729 22.9581 1.70319C25.3978 2.83865 26.6637 4.67641 26.7558 7.21647L19.3677 8.30146C19.4291 8.09119 19.4597 7.8683 19.4597 7.6328C19.4597 6.56463 18.8153 5.79504 17.5264 5.32404C16.2375 4.85303 14.6648 4.61753 12.8082 4.61753C11.3351 4.61753 10.2381 4.77734 9.51689 5.09695C8.79573 5.41656 8.43515 5.83289 8.43515 6.34595C8.43515 6.86742 8.73436 7.29216 9.33277 7.62019C9.93118 7.9398 11.0283 8.16268 12.624 8.28884L16.0994 8.5664C18.4624 8.7178 20.4341 9.01638 22.0145 9.46215C23.6103 9.90792 24.7917 10.4714 25.5589 11.1527C26.3261 11.8256 26.7097 12.5826 26.7097 13.4236C26.7097 14.6012 26.1573 15.6104 25.0526 16.4515C23.9478 17.2926 22.4288 17.9276 20.4955 18.3566C18.5621 18.7855 16.3756 19 13.9359 19Z" fill="#F5F5F5"/>
<path d="M37.4121 18.5332V5.10956H28.2518V0.466799H54.6279V5.10956H45.4907V18.5332H37.4121Z" fill="#F5F5F5"/>
<path d="M75.2962 18.5332C74.3295 16.7753 73.4396 15.0301 72.6263 13.2975H63.3279C62.4533 15.2151 61.5941 16.9604 60.7502 18.5332H51.728L61.4176 0.466799H74.3295L84.0192 18.5332H75.2962ZM71.7517 11.3924C70.4475 8.49911 69.2123 5.46702 68.0462 2.29615H67.793C66.7189 5.30722 65.5144 8.33931 64.1795 11.3924H71.7517Z" fill="#F5F5F5"/>
<path d="M89.9803 18.5332V5.10956H80.82V0.466799H107.196V5.10956H98.0588V18.5332H89.9803Z" fill="#F5F5F5"/>
<path d="M109.866 18.5332V0.466799H117.968V18.5332H109.866Z" fill="#F5F5F5"/>
<path d="M136.61 19C131.578 19 127.795 18.1926 125.264 16.5777C122.732 14.9544 121.466 12.5994 121.466 9.51262C121.466 6.40903 122.724 4.0498 125.241 2.43493C127.772 0.811642 131.562 0 136.61 0C141.628 0 145.395 0.811642 147.911 2.43493C150.428 4.0498 151.686 6.40903 151.686 9.51262C151.686 12.5994 150.428 14.9544 147.911 16.5777C145.395 18.1926 141.628 19 136.61 19ZM136.587 14.3572C141.635 14.3572 144.16 12.7424 144.16 9.51262C144.16 6.26605 141.628 4.64276 136.564 4.64276C131.532 4.64276 129.015 6.26605 129.015 9.51262C129.015 12.7424 131.539 14.3572 136.587 14.3572Z" fill="#F5F5F5"/>
<path d="M163.263 0.466799L176.198 13.3606H176.405L176.336 12.9947C176.244 12.5321 176.175 12.1326 176.129 11.7961C176.083 11.4597 176.06 11.0644 176.06 10.6102V0.504648L184 0.466799V18.5332H176.29L163.079 5.65206H162.871L162.917 5.95485C163.071 6.88004 163.148 7.64542 163.148 8.251V18.5332H155.207V0.466799H163.263Z" fill="#F5F5F5"/>
</svg>
