<svg width="858" height="94" viewBox="0 0 858 94" fill="none" xmlns="http://www.w3.org/2000/svg">
<path d="M64.9366 94C50.6371 94 38.5183 92.4705 28.5801 89.4115C18.7135 86.3525 11.385 82.0533 6.59467 76.514C1.80433 70.9747 -0.376341 64.5053 0.0526444 57.1058L33.8352 52.0212C33.6207 52.9306 33.5135 53.8194 33.5135 54.6875C33.5135 57.8292 34.7289 60.6402 37.1598 63.1205C39.6623 65.6008 43.3086 67.5643 48.099 69.0111C52.9608 70.4166 58.8593 71.1194 65.7946 71.1194C73.8023 71.1194 79.6294 70.2513 83.2757 68.5151C86.9221 66.7375 88.7453 64.4226 88.7453 61.5703C88.7453 58.6766 86.9579 56.403 83.383 54.7495C79.8796 53.0546 74.3028 51.8352 66.6526 51.0911L49.9222 49.7269C39.7695 49.1482 31.2613 47.8047 24.3975 45.6965C17.6053 43.5882 12.529 40.9013 9.16858 37.6355C5.80819 34.3285 4.128 30.6081 4.128 26.4743C4.128 21.0176 6.52317 16.3464 11.3135 12.4607C16.1038 8.57489 22.7888 5.63988 31.3685 3.65566C40.0197 1.63009 50.0651 0.61731 61.5047 0.61731C80.4516 0.61731 95.6091 3.40763 106.977 8.98827C118.345 14.5689 124.244 23.6013 124.673 36.0854L90.2467 41.418C90.5327 40.3845 90.6757 39.2891 90.6757 38.1316C90.6757 32.8817 87.6728 29.0992 81.667 26.7843C75.6613 24.4694 68.3328 23.3119 59.6816 23.3119C52.8178 23.3119 47.7057 24.0973 44.3453 25.6682C40.985 27.239 39.3048 29.2853 39.3048 31.8069C39.3048 34.3698 40.699 36.4574 43.4874 38.0696C46.2758 39.6404 51.3879 40.7359 58.8236 41.356L75.0178 42.7201C86.0284 43.4642 95.2158 44.9317 102.58 47.1226C110.016 49.3136 115.521 52.0832 119.096 55.4316C122.671 58.7386 124.458 62.4591 124.458 66.5929C124.458 72.3802 121.884 77.3408 116.737 81.4746C111.589 85.6084 104.51 88.7294 95.5018 90.8376C86.4931 92.9459 76.3047 94 64.9366 94Z" fill="#29303E"/>
<path d="M174.328 91.7057V25.7302H131.644V2.91157H254.548V25.7302H211.971V91.7057H174.328Z" fill="#29303E"/>
<path d="M350.855 91.7057C346.351 83.0661 342.204 74.4884 338.415 65.9728H295.087C291.012 75.3979 287.008 83.9755 283.076 91.7057H241.035L286.186 2.91157H346.351L391.501 91.7057H350.855ZM334.339 56.6097C328.262 42.3894 322.506 27.4871 317.073 11.9026H315.893C310.888 26.7016 305.275 41.604 299.055 56.6097H334.339Z" fill="#29303E"/>
<path d="M419.278 91.7057V25.7302H376.594V2.91157H499.498V25.7302H456.922V91.7057H419.278Z" fill="#29303E"/>
<path d="M511.939 91.7057V2.91157H549.69V91.7057H511.939Z" fill="#29303E"/>
<path d="M636.559 94C613.108 94 595.484 90.0315 583.687 82.0946C571.89 74.1164 565.991 62.5417 565.991 47.3707C565.991 32.1169 571.854 20.5216 583.579 12.5847C595.377 4.60643 613.036 0.61731 636.559 0.61731C659.939 0.61731 677.491 4.60643 689.217 12.5847C700.943 20.5216 706.805 32.1169 706.805 47.3707C706.805 62.5417 700.943 74.1164 689.217 82.0946C677.491 90.0315 659.939 94 636.559 94ZM636.452 71.1814C659.975 71.1814 671.736 63.2445 671.736 47.3707C671.736 31.4142 659.939 23.4359 636.345 23.4359C612.893 23.4359 601.168 31.4142 601.168 47.3707C601.168 63.2445 612.929 71.1814 636.452 71.1814Z" fill="#29303E"/>
<path d="M760.75 2.91157L821.023 66.2828H821.988L821.666 64.4846C821.237 62.211 820.915 60.2475 820.701 58.5939C820.486 56.9404 820.379 54.9975 820.379 52.7653V3.09759L857.379 2.91157V91.7057H821.452L759.892 28.3965H758.927L759.142 29.8847C759.857 34.4319 760.214 38.1936 760.214 41.17V91.7057H723.214V2.91157H760.75Z" fill="#29303E"/>
</svg>
