<svg width="431" height="437" viewBox="0 0 431 437" fill="none" xmlns="http://www.w3.org/2000/svg">
<path fill-rule="evenodd" clip-rule="evenodd" d="M431 278.02V243.491C408.651 221.472 389.492 196.167 380.264 167.778C397.927 160.797 414.926 152.455 431 142.87V110.253C427.66 112.515 424.286 114.713 420.885 116.847C405.886 126.257 390.631 134.225 374.982 140.879C374.315 125.351 378.876 111.055 393.595 101.499C404.761 94.2504 417.601 89.2422 431 85.7025V58.4985C428.415 59.0707 425.84 59.682 423.274 60.3356C398.7 66.5969 372.812 76.7377 358.633 95.9043C347.041 111.575 345.15 131.553 348.163 150.885C333.011 155.781 317.445 159.579 301.356 162.384C289.611 150.422 276.864 139.22 264.481 128.493C255.867 121.032 247.556 113.419 239.608 105.595C245.176 68.9794 257.214 34.6337 270.133 0H240.05C230.389 26.0845 221.152 52.2521 215.344 79.589C197.624 58.7393 182.592 36.1687 171.217 10.9434C169.61 7.38159 168 3.72168 166.588 0H138.135C138.97 2.8772 139.932 5.74304 140.996 8.58105C149.422 31.0145 162.093 52.7795 176.183 72.8418C186.3 87.2399 197.726 100.75 210.113 113.502C208.168 133.009 207.817 152.856 209.074 172.757C184.974 175.299 161.078 178.642 137.91 184.958C114.409 191.361 91.9935 200.62 71.1266 212.063C50.2597 223.506 29.5888 236.923 15.5573 255.109C1.81704 272.921 -4.0189 295.074 4.71743 317.46C11.9743 336.066 28.432 351.186 45.5026 362.562C85.3266 389.133 134.623 411.094 182.633 409.911C192.537 419.208 202.768 428.231 213.235 437H253.736C240.75 426.93 228.11 416.472 215.935 405.627C240.923 399.839 263.924 388.598 283.735 373.822C301.877 397.428 323.504 419.026 348.004 437H394.381C358.532 418.051 327.952 389.282 303.763 356.637C322.259 338.359 337.965 314.907 345.331 289.5C374.187 293.381 402.83 299.286 431 307.183V280.63C404.214 273.367 377.036 267.798 349.687 264.061C350.02 257.411 349.705 250.705 348.654 243.992C345.238 222.209 335.031 202.855 321.445 185.219C330.916 183.314 340.287 181.065 349.508 178.353C351.298 177.827 353.082 177.287 354.861 176.733C369.214 217.735 397.614 249.591 431 278.02ZM269.014 166.862C262.075 160.495 254.914 154.334 247.832 148.24C244.017 144.957 240.224 141.694 236.502 138.429C236.089 148.923 236.169 159.488 236.74 170.075C247.513 169.073 258.286 168.067 269.014 166.862ZM239.118 195.96C239.592 195.915 240.066 195.869 240.541 195.823C257.612 194.17 274.816 192.505 291.87 190.154C305.924 206.563 317.776 225.342 321.007 245.877C321.793 250.902 322.011 255.912 321.749 260.872C300.964 258.957 280.136 258.05 259.442 258.156C257.321 258.167 255.198 258.184 253.073 258.209C246.49 237.807 241.839 216.925 239.118 195.96ZM211.63 198.75C206.214 199.347 200.827 199.982 195.48 200.678C145.037 207.244 97.5685 223.746 58.4245 252.698C41.7719 265.028 22.6586 284.183 29.5604 306.928C35.0504 325.046 54.0326 338.488 70.382 348.142C97.0978 363.922 126.193 377.302 156.066 381.974C149.209 373.473 143.232 364.513 138.874 355.163C130.25 336.657 128.638 315.726 138.329 298.559C148.437 280.643 167.844 270.156 188.5 264.896C200.316 261.891 212.526 260.223 224.883 259.296C218.764 239.388 214.352 219.105 211.63 198.75ZM233.792 284.921C216.694 285.812 199.629 287.981 184.45 294.458C166.624 302.043 155.787 317.281 160.728 336.631C165.161 354.037 178.683 369.924 191.853 383.033C196.917 382.494 201.984 381.641 207.048 380.443C229.547 375.122 250.269 364.991 267.846 351.376C254.095 330.261 242.753 307.943 233.792 284.921ZM287.75 333.003C293.539 326.639 298.758 319.822 303.327 312.635C308.509 304.485 313.112 295.616 316.434 286.306C298.479 284.762 280.532 284.05 262.636 284.159C269.48 300.577 277.89 317.06 287.75 333.003Z" fill="#F7F7F7"/>
</svg>
