<svg width="40" height="40" viewBox="0 0 40 40" fill="none" xmlns="http://www.w3.org/2000/svg">
<circle cx="20" cy="20" r="20" fill="#242A36"/>
<path fill-rule="evenodd" clip-rule="evenodd" d="M22.6372 29.9408C22.6229 29.9026 22.605 28.2541 22.5974 26.2775L22.5837 22.6837L18.9401 26.319C16.9362 28.3184 15.2719 29.9542 15.2417 29.9542C15.2115 29.9542 14.0198 28.785 12.5934 27.356L10 24.7579L13.669 21.0811L17.3381 17.4045L13.696 17.3902L10.054 17.376V13.6993V10.0226L17.3676 10.006C24.7777 9.98927 25.0524 9.99524 25.7851 10.1892C27.1704 10.5559 28.4747 11.5363 29.1971 12.7539C29.5335 13.321 29.7612 13.9152 29.896 14.5773C30.0058 15.1174 30.0078 15.2788 29.9941 22.5552L29.9801 29.9819L26.3217 29.9961C23.4241 30.0074 22.6579 29.9959 22.6372 29.9408Z" fill="white"/>
</svg>
