<svg width="42" height="42" viewBox="0 0 42 42" fill="none" xmlns="http://www.w3.org/2000/svg">
<rect width="42" height="42" rx="10" fill="white"/>
<path fill-rule="evenodd" clip-rule="evenodd" d="M6.51482 20.0038C14.7941 16.3966 20.315 14.0185 23.0773 12.8696C30.9644 9.58906 32.6033 9.0192 33.6715 9.00018C33.9064 8.99624 34.4318 9.05447 34.772 9.33058C35.0593 9.56372 35.1384 9.87865 35.1762 10.0997C35.2141 10.3207 35.2612 10.8243 35.2237 11.2177C34.7963 15.7085 32.9469 26.6065 32.0061 31.6362C31.608 33.7645 30.8241 34.4781 30.0652 34.5479C28.7591 34.6681 27.702 33.9145 26.5253 33.0756L26.5252 33.0755C26.216 32.8551 25.8985 32.6288 25.5661 32.4109C24.2613 31.5555 23.2528 30.8688 22.2417 30.1802L22.2417 30.1802C21.3158 29.5497 20.3878 28.9177 19.2281 28.1535C16.8148 26.5631 17.825 25.5892 19.1722 24.2905C19.3902 24.0803 19.6172 23.8616 19.8398 23.6303C19.9392 23.5271 20.4254 23.0751 21.1108 22.4379C23.3095 20.3938 27.5581 16.4438 27.6654 15.9867C27.683 15.9117 27.6993 15.6322 27.5332 15.4846C27.3672 15.337 27.1221 15.3875 26.9452 15.4276C26.6945 15.4845 22.7013 18.1238 14.9657 23.3456C13.8323 24.1239 12.8056 24.5031 11.8858 24.4833C10.8718 24.4614 8.92115 23.9099 7.47107 23.4385C7.25812 23.3693 7.05039 23.304 6.84991 23.241C5.37601 22.7775 4.29365 22.4372 4.402 21.5729C4.46612 21.0614 5.17039 20.5384 6.51482 20.0038Z" fill="#E94E1B"/>
</svg>
