<svg width="239" height="60" viewBox="0 0 239 60" fill="none" xmlns="http://www.w3.org/2000/svg">
<path d="M10.8717 22.8329C10.1087 22.8329 9.36965 23.1428 8.65441 23.7627C7.96301 24.3587 7.3193 25.1813 6.72326 26.2303C6.15107 27.2555 5.63848 28.4118 5.18549 29.6992C4.75635 30.9866 4.42257 32.3217 4.18416 33.7045C3.94574 35.0873 3.82654 36.4105 3.82654 37.6741C3.82654 38.747 3.99343 39.5338 4.32721 40.0344C4.68483 40.5351 5.19741 40.7854 5.86497 40.7854C6.6279 40.7854 7.35506 40.4874 8.04646 39.8914C8.7617 39.2715 9.41733 38.449 10.0134 37.4238C10.6094 36.3748 11.122 35.2066 11.5511 33.9191C11.9803 32.6317 12.3141 31.3085 12.5525 29.9495C12.7909 28.5667 12.9101 27.2316 12.9101 25.9442C12.9101 24.8475 12.7432 24.0607 12.4094 23.5839C12.0756 23.0832 11.5631 22.8329 10.8717 22.8329ZM0.751003 35.886C0.751003 34.837 0.894051 33.6926 1.18015 32.4529C1.46624 31.2131 1.89539 29.9853 2.46758 28.7694C3.03977 27.5535 3.73117 26.4449 4.54178 25.4435C5.37622 24.4422 6.3418 23.6435 7.4385 23.0475C8.5352 22.4276 9.75111 22.1176 11.0862 22.1176C12.5644 22.1176 13.7445 22.5826 14.6267 23.5124C15.5326 24.4183 15.9856 25.825 15.9856 27.7323C15.9856 28.7813 15.8426 29.9257 15.5565 31.1654C15.2704 32.4052 14.8412 33.633 14.269 34.8489C13.6969 36.0648 12.9935 37.1735 12.1591 38.1748C11.3485 39.1761 10.3948 39.9867 9.29813 40.6066C8.20143 41.2027 6.98552 41.5007 5.6504 41.5007C4.17224 41.5007 2.98017 41.0358 2.0742 40.1059C1.19207 39.1761 0.751003 37.7695 0.751003 35.886ZM18.8209 30.8793H31.731L31.1945 32.9535H18.2845L18.8209 30.8793ZM44.2086 22.8329C43.4456 22.8329 42.7066 23.1428 41.9913 23.7627C41.2999 24.3587 40.6562 25.1813 40.0602 26.2303C39.488 27.2555 38.9754 28.4118 38.5224 29.6992C38.0933 30.9866 37.7595 32.3217 37.5211 33.7045C37.2827 35.0873 37.1635 36.4105 37.1635 37.6741C37.1635 38.747 37.3303 39.5338 37.6641 40.0344C38.0217 40.5351 38.5343 40.7854 39.2019 40.7854C39.9648 40.7854 40.692 40.4874 41.3834 39.8914C42.0986 39.2715 42.7542 38.449 43.3503 37.4238C43.9463 36.3748 44.4589 35.2066 44.888 33.9191C45.3172 32.6317 45.651 31.3085 45.8894 29.9495C46.1278 28.5667 46.247 27.2316 46.247 25.9442C46.247 24.8475 46.0801 24.0607 45.7463 23.5839C45.4126 23.0832 44.9 22.8329 44.2086 22.8329ZM34.0879 35.886C34.0879 34.837 34.231 33.6926 34.5171 32.4529C34.8032 31.2131 35.2323 29.9853 35.8045 28.7694C36.3767 27.5535 37.0681 26.4449 37.8787 25.4435C38.7131 24.4422 39.6787 23.6435 40.7754 23.0475C41.8721 22.4276 43.088 22.1176 44.4231 22.1176C45.9013 22.1176 47.0815 22.5826 47.9636 23.5124C48.8696 24.4183 49.3225 25.825 49.3225 27.7323C49.3225 28.7813 49.1795 29.9257 48.8934 31.1654C48.6073 32.4052 48.1782 33.633 47.606 34.8489C47.0338 36.0648 46.3305 37.1735 45.496 38.1748C44.6854 39.1761 43.7317 39.9867 42.635 40.6066C41.5383 41.2027 40.3224 41.5007 38.9873 41.5007C37.5092 41.5007 36.3171 41.0358 35.4111 40.1059C34.529 39.1761 34.0879 37.7695 34.0879 35.886ZM53.0876 33.8834C53.7552 31.3562 54.3035 28.8648 54.7327 26.4091C55.1618 23.9534 55.5433 21.6885 55.8771 19.6143C56.2108 17.5163 56.5565 15.7878 56.9142 14.4288C56.9857 14.2142 57.0691 14.0235 57.1645 13.8566C57.2599 13.6659 57.3791 13.5109 57.5221 13.3917C57.6652 13.2725 57.8201 13.1891 57.987 13.1414C58.1539 13.0699 58.3327 13.0341 58.5234 13.0341C59.2625 13.0341 59.7394 13.2606 59.9539 13.7136C60.1923 14.1666 60.2162 14.6791 60.0254 15.2513C59.7632 16.205 59.3817 17.3613 58.8811 18.7203C58.3804 20.0554 57.8201 21.5455 57.2002 23.1905C56.6042 24.8356 55.9963 26.576 55.3764 28.4118C54.7803 30.2237 54.232 32.0833 53.7313 33.9906L53.0876 33.8834ZM49.9763 39.6768C49.9763 38.9616 50.2505 38.3298 50.7988 37.7814C51.3472 37.2092 51.9551 36.9231 52.6227 36.9231C53.1711 36.9231 53.6121 37.1019 53.9459 37.4596C54.2797 37.8172 54.4466 38.2582 54.4466 38.7828C54.4466 39.2596 54.3154 39.7126 54.0532 40.1417C53.8148 40.547 53.4929 40.8689 53.0876 41.1073C52.6823 41.3695 52.2412 41.5007 51.7644 41.5007C51.2399 41.5007 50.8108 41.3338 50.477 41C50.1432 40.6424 49.9763 40.2013 49.9763 39.6768Z" fill="#242A36"/>
<path d="M94.3022 40H92.2108L86.9209 27.4518H86.8594L86.9209 28.2822V40H84.2144V24.3763H87.9358L93.2565 37.0782L98.5772 24.3763H102.299V40H99.5921V28.2822L99.6843 27.4518H99.5921L94.3022 40ZM105.326 35.2637C104.792 33.0698 104.813 30.9477 105.387 28.8973C105.961 26.8469 107.171 25.3809 109.016 24.4993C110.041 24.0072 111.241 23.7612 112.615 23.7612C113.988 23.7612 115.188 24.0072 116.213 24.4993C118.058 25.3604 119.278 26.8982 119.873 29.1126C120.139 30.1378 120.273 31.1732 120.273 32.2189C120.293 33.2441 120.17 34.259 119.904 35.2637C119.658 36.2478 119.217 37.15 118.581 37.9701C117.966 38.7903 117.177 39.4362 116.213 39.9077C115.167 40.3793 113.968 40.6151 112.615 40.6151C111.261 40.6151 110.062 40.3793 109.016 39.9077C107.232 39.0466 106.002 37.4986 105.326 35.2637ZM108.186 29.0818C107.919 29.902 107.786 30.9272 107.786 32.1574C107.786 33.3671 107.919 34.4025 108.186 35.2637C108.452 36.1248 108.76 36.7707 109.108 37.2013C109.847 38.0214 110.687 38.5032 111.63 38.6468C112.287 38.7493 112.943 38.7493 113.599 38.6468C113.886 38.6263 114.286 38.4827 114.798 38.2162C115.352 37.9291 115.803 37.5703 116.151 37.1397C116.5 36.7092 116.797 36.0838 117.043 35.2637C117.31 34.4025 117.443 33.3671 117.443 32.1574C117.443 30.9272 117.31 29.902 117.043 29.0818C116.756 28.1797 116.439 27.5338 116.09 27.1442C115.762 26.7547 115.352 26.4266 114.86 26.1601C114.368 25.8935 113.947 25.7295 113.599 25.668C112.943 25.5655 112.287 25.5655 111.63 25.668C111.343 25.6885 110.933 25.8423 110.4 26.1293C109.355 26.6419 108.616 27.6261 108.186 29.0818ZM133.865 34.4333H136.448C136.366 35.6225 135.915 36.8732 135.095 38.1854C134.644 38.9236 133.936 39.5182 132.973 39.9692C132.03 40.3998 130.922 40.6151 129.651 40.6151C129.221 40.6151 128.913 40.6049 128.728 40.5844C127.826 40.5433 126.904 40.3076 125.96 39.877C123.336 38.5647 122.024 35.9608 122.024 32.0651C122.024 30.0148 122.495 28.1899 123.439 26.5907C124.607 24.7043 126.617 23.7612 129.467 23.7612C131.476 23.7612 133.075 24.2737 134.264 25.2989C135.454 26.3036 136.141 27.6261 136.325 29.2664H133.742C133.332 26.8675 131.927 25.668 129.528 25.668C127.97 25.668 126.801 26.2421 126.022 27.3903C125.263 28.518 124.884 30.0763 124.884 32.0651C124.884 33.9924 125.284 35.5815 126.084 36.8322C126.883 38.0829 128.093 38.7083 129.713 38.7083C131.107 38.7083 132.122 38.2674 132.757 37.3858C133.434 36.5041 133.803 35.52 133.865 34.4333ZM148.93 40H146.839L141.549 27.4518H141.487L141.549 28.2822V40H138.842V24.3763H142.564L147.885 37.0782L153.205 24.3763H156.927V40H154.22V28.2822L154.312 27.4518H154.22L148.93 40ZM171.702 35.479H174.286C174.04 36.8527 173.373 38.0522 172.287 39.0773C171.2 40.1025 169.59 40.6151 167.458 40.6151C164.567 40.6151 162.445 39.6617 161.092 37.7549C160.415 36.7502 159.974 35.6737 159.769 34.5255C159.626 33.7259 159.554 32.9673 159.554 32.2496C159.554 30.8759 159.759 29.5842 160.169 28.3745C160.435 27.5133 160.825 26.7649 161.338 26.1293C161.891 25.4527 162.681 24.8889 163.706 24.4378C164.731 23.9867 165.889 23.7612 167.181 23.7612C169.478 23.7612 171.21 24.3968 172.379 25.668C172.871 26.2011 173.271 26.8777 173.578 27.6978C174.029 28.8871 174.306 30.3326 174.409 32.0344C174.409 32.0959 174.409 32.2291 174.409 32.4342C174.429 32.6392 174.439 32.7622 174.439 32.8032H162.414C162.414 34.3615 162.824 35.7353 163.644 36.9245C164.464 38.1137 165.705 38.7083 167.366 38.7083C168.555 38.7083 169.529 38.411 170.287 37.8164C171.046 37.2218 171.518 36.4426 171.702 35.479ZM162.414 30.8964H171.579C171.559 29.6867 171.272 28.5692 170.718 27.5441C170.082 26.2933 168.924 25.668 167.243 25.668C165.336 25.668 164.024 26.3036 163.306 27.5748C162.711 28.6 162.414 29.7072 162.414 30.8964ZM180.662 40V26.2831H175.249V24.3763H188.781V26.2831H183.368V40H180.662ZM189.686 45.6897V24.3763H192.208V26.5291H192.3C193.531 24.6838 195.253 23.7612 197.467 23.7612C199.497 23.7612 201.178 24.4685 202.511 25.8833C203.844 27.3185 204.51 29.4201 204.51 32.1881C204.51 35.0176 203.834 37.1295 202.48 38.5237C201.148 39.918 199.497 40.6151 197.529 40.6151C196.914 40.6151 196.165 40.4818 195.284 40.2153C193.992 39.8257 193.028 39.0056 192.393 37.7549V45.6897H189.686ZM192.208 32.2496C192.208 34.423 192.7 36.0531 193.684 37.1397C194.71 38.1854 195.827 38.7083 197.037 38.7083C198.308 38.7083 199.395 38.1957 200.297 37.1705C201.199 36.1043 201.65 34.4435 201.65 32.1881C201.65 30.1378 201.23 28.5385 200.389 27.3903C199.569 26.2421 198.4 25.668 196.883 25.668C196.083 25.668 195.335 25.8833 194.638 26.3139C193.018 27.2775 192.208 29.2561 192.208 32.2496ZM206.623 35.2637C206.089 33.0698 206.11 30.9477 206.684 28.8973C207.258 26.8469 208.468 25.3809 210.313 24.4993C211.338 24.0072 212.538 23.7612 213.912 23.7612C215.285 23.7612 216.485 24.0072 217.51 24.4993C219.355 25.3604 220.575 26.8982 221.17 29.1126C221.436 30.1378 221.57 31.1732 221.57 32.2189C221.59 33.2441 221.467 34.259 221.201 35.2637C220.955 36.2478 220.514 37.15 219.878 37.9701C219.263 38.7903 218.474 39.4362 217.51 39.9077C216.464 40.3793 215.265 40.6151 213.912 40.6151C212.558 40.6151 211.359 40.3793 210.313 39.9077C208.529 39.0466 207.299 37.4986 206.623 35.2637ZM209.483 29.0818C209.216 29.902 209.083 30.9272 209.083 32.1574C209.083 33.3671 209.216 34.4025 209.483 35.2637C209.749 36.1248 210.057 36.7707 210.405 37.2013C211.144 38.0214 211.984 38.5032 212.927 38.6468C213.583 38.7493 214.24 38.7493 214.896 38.6468C215.183 38.6263 215.583 38.4827 216.095 38.2162C216.649 37.9291 217.1 37.5703 217.448 37.1397C217.797 36.7092 218.094 36.0838 218.34 35.2637C218.607 34.4025 218.74 33.3671 218.74 32.1574C218.74 30.9272 218.607 29.902 218.34 29.0818C218.053 28.1797 217.735 27.5338 217.387 27.1442C217.059 26.7547 216.649 26.4266 216.157 26.1601C215.665 25.8935 215.244 25.7295 214.896 25.668C214.24 25.5655 213.583 25.5655 212.927 25.668C212.64 25.6885 212.23 25.8423 211.697 26.1293C210.651 26.6419 209.913 27.6261 209.483 29.0818Z" fill="#242A36"/>
<rect x="66" y="1" width="172" height="58" rx="29" stroke="#242A36" stroke-width="2"/>
</svg>
