<svg width="481" height="338" viewBox="0 0 481 338" fill="none" xmlns="http://www.w3.org/2000/svg">
<path d="M0 20C0 8.95431 8.95431 0 20 0L461 0C472.046 0 481 8.95431 481 20V318C481 329.046 472.046 338 461 338L20 338C8.9543 338 0 329.046 0 318L0 20Z" fill="#F5F5F5"/>
<path d="M20 1.5L461 1.5C471.217 1.5 479.5 9.78273 479.5 20V318C479.5 328.217 471.217 336.5 461 336.5L20 336.5C9.78272 336.5 1.5 328.217 1.5 318L1.5 20C1.5 9.78274 9.78273 1.5 20 1.5Z" stroke="#29303E" stroke-width="3"/>
<rect y="53" width="481" height="23" fill="#29303E"/>
</svg>
