<svg width="299" height="556" viewBox="0 0 299 556" fill="none" xmlns="http://www.w3.org/2000/svg">
<mask id="path-1-inside-1_388_44" fill="white">
<path fill-rule="evenodd" clip-rule="evenodd" d="M299 63.6102V556H0V0L9 1C20.7474 20.7189 43.1143 34 68 34C88.3242 34 106.6 24.9789 119 11H120L187 17C198.885 27.2058 213.996 34 231 34C243.118 34 255.162 30.4982 265 25L265.972 25.1143C267.475 27.1349 269.274 29.942 271.253 33.0315C275.049 38.9588 279.512 45.926 283.84 50.3746C289.21 55.8948 292.867 58.6195 295.381 60.4928C297.021 61.7143 298.174 62.5738 299 63.6102Z"/>
</mask>
<path fill-rule="evenodd" clip-rule="evenodd" d="M299 63.6102V556H0V0L9 1C20.7474 20.7189 43.1143 34 68 34C88.3242 34 106.6 24.9789 119 11H120L187 17C198.885 27.2058 213.996 34 231 34C243.118 34 255.162 30.4982 265 25L265.972 25.1143C267.475 27.1349 269.274 29.942 271.253 33.0315C275.049 38.9588 279.512 45.926 283.84 50.3746C289.21 55.8948 292.867 58.6195 295.381 60.4928C297.021 61.7143 298.174 62.5738 299 63.6102Z" fill="white"/>
<path d="M299 556V561H304V556H299ZM299 63.6102H304V61.8617L302.91 60.4942L299 63.6102ZM0 556H-5V561H0V556ZM0 0L0.552158 -4.96942L-5 -5.58633L-5 0H0ZM9 1L13.2955 -1.55901L12.0231 -3.69487L9.55216 -3.96942L9 1ZM119 11V6H116.752L115.26 7.68207L119 11ZM120 11L120.446 6.01993L120.223 6H120V11ZM187 17L190.257 13.2067L189.042 12.1628L187.446 12.0199L187 17ZM265 25L265.584 20.0342L263.975 19.8449L262.561 20.6354L265 25ZM265.972 25.1143L269.983 22.1293L268.696 20.4004L266.556 20.1486L265.972 25.1143ZM271.253 33.0315L267.042 35.7284L267.042 35.7284L271.253 33.0315ZM283.84 50.3746L280.256 53.8612L280.256 53.8612L283.84 50.3746ZM295.381 60.4928L298.369 56.4834L298.369 56.4834L295.381 60.4928ZM304 556V63.6102H294V556H304ZM0 561H299V551H0V561ZM-5 0V556H5V0H-5ZM9.55216 -3.96942L0.552158 -4.96942L-0.552158 4.96942L8.44784 5.96942L9.55216 -3.96942ZM68 29C44.8793 29 24.1427 16.6489 13.2955 -1.55901L4.70448 3.55901C17.352 24.789 41.3494 39 68 39V29ZM115.26 7.68207C103.758 20.6486 86.8192 29 68 29V39C89.8292 39 109.443 29.3093 122.74 14.3179L115.26 7.68207ZM120 6H119V16H120V6ZM187.446 12.0199L120.446 6.01993L119.554 15.9801L186.554 21.9801L187.446 12.0199ZM231 29C215.382 29 201.391 22.7681 190.257 13.2067L183.743 20.7933C196.378 31.6436 212.61 39 231 39V29ZM262.561 20.6354C253.405 25.7523 242.195 29 231 29V39C244.042 39 256.919 35.2442 267.439 29.3646L262.561 20.6354ZM266.556 20.1486L265.584 20.0342L264.416 29.9658L265.388 30.0801L266.556 20.1486ZM275.463 30.3346C273.521 27.3028 271.615 24.323 269.983 22.1293L261.961 28.0993C263.336 29.9469 265.026 32.5812 267.042 35.7284L275.463 30.3346ZM287.424 46.888C283.526 42.8816 279.353 36.4082 275.463 30.3346L267.042 35.7284C270.745 41.5095 275.498 48.9703 280.256 53.8612L287.424 46.888ZM298.369 56.4834C295.959 54.6875 292.535 52.1413 287.424 46.888L280.256 53.8612C285.886 59.6482 289.776 62.5515 292.394 64.5021L298.369 56.4834ZM302.91 60.4942C301.594 58.843 299.837 57.5773 298.369 56.4834L292.394 64.5021C294.204 65.8513 294.754 66.3045 295.09 66.7263L302.91 60.4942Z" fill="white" mask="url(#path-1-inside-1_388_44)"/>
<path opacity="0.1" d="M20 526L20 538L40 538L40 526L20 526Z" fill="#1B2547"/>
<path opacity="0.1" d="M260 526L260 538L280 538L280 526L260 526Z" fill="#1B2547"/>
<path opacity="0.1" d="M20 491L20 503H40V491H20Z" fill="#1B2547"/>
<path opacity="0.1" d="M260 491V503H280V491H260Z" fill="#1B2547"/>
<path opacity="0.1" d="M20 458L20 470H40V458H20Z" fill="#1B2547"/>
<path opacity="0.1" d="M260 458L260 470L280 470L280 458L260 458Z" fill="#1B2547"/>
<path opacity="0.1" d="M20 425L20 437H40V425H20Z" fill="#1B2547"/>
<path opacity="0.1" d="M260 425L260 437L280 437L280 425L260 425Z" fill="#1B2547"/>
<path opacity="0.1" d="M20 391L20 403H40V391H20Z" fill="#1B2547"/>
<path opacity="0.1" d="M260 391V403H280V391H260Z" fill="#1B2547"/>
<path opacity="0.1" d="M20 357L20 369H40V357H20Z" fill="#1B2547"/>
<path opacity="0.1" d="M260 357V369H280V357H260Z" fill="#1B2547"/>
<path opacity="0.1" d="M20 324L20 336H40V324H20Z" fill="#1B2547"/>
<path opacity="0.1" d="M260 324L260 336L280 336L280 324L260 324Z" fill="#1B2547"/>
<path opacity="0.1" d="M20 291L20 303H40V291H20Z" fill="#1B2547"/>
<path opacity="0.1" d="M260 291L260 303L280 303L280 291L260 291Z" fill="#1B2547"/>
<path opacity="0.1" d="M20 257L20 269H40V257H20Z" fill="#1B2547"/>
<path opacity="0.1" d="M260 257V269H280V257H260Z" fill="#1B2547"/>
<path opacity="0.1" d="M20 224L20 236H40V224H20Z" fill="#1B2547"/>
<path opacity="0.1" d="M260 224L260 236L280 236L280 224L260 224Z" fill="#1B2547"/>
<path opacity="0.1" d="M20 190L20 202L40 202L40 190L20 190Z" fill="#1B2547"/>
<path opacity="0.1" d="M260 190L260 202L280 202L280 190L260 190Z" fill="#1B2547"/>
<path opacity="0.1" d="M20 157L20 169L40 169L40 157L20 157Z" fill="#1B2547"/>
<path opacity="0.1" d="M260 157L260 169L280 169L280 157L260 157Z" fill="#1B2547"/>
<path opacity="0.1" d="M20 123L20 135H40V123H20Z" fill="#1B2547"/>
<path opacity="0.1" d="M260 123L260 135L280 135L280 123L260 123Z" fill="#1B2547"/>
<path opacity="0.1" d="M20 90L20 102H40V90H20Z" fill="#1B2547"/>
<path opacity="0.1" d="M260 90L260 102L280 102L280 90L260 90Z" fill="#1B2547"/>
<path opacity="0.1" d="M20 57L20 69L40 69L40 57L20 57Z" fill="#1B2547"/>
<path opacity="0.1" d="M260 57L260 69L280 69L280 57L260 57Z" fill="#1B2547"/>
</svg>
