<svg width="298" height="556" viewBox="0 0 298 556" fill="none" xmlns="http://www.w3.org/2000/svg">
<path fill-rule="evenodd" clip-rule="evenodd" d="M298 556L298 0H289.404C277.845 20.2897 255.798 34 230.5 34C205.203 34 183.155 20.2897 171.596 0H126.403C114.845 20.2897 92.7975 34 67.5 34C42.2025 34 20.1554 20.2897 8.5965 0H0L3.05176e-05 556L298 556Z" fill="white"/>
<g opacity="0.1">
<path d="M19 524L19 536L39 536L39 524L19 524Z" fill="#1B2547"/>
</g>
<g opacity="0.1">
<path d="M259 524L259 536L279 536L279 524L259 524Z" fill="#1B2547"/>
</g>
<g opacity="0.1">
<path d="M19 489L19 501L39 501L39 489L19 489Z" fill="#1B2547"/>
</g>
<g opacity="0.1">
<path d="M259 489L259 501L279 501L279 489L259 489Z" fill="#1B2547"/>
</g>
<g opacity="0.1">
<path d="M19 456L19 468L39 468L39 456L19 456Z" fill="#1B2547"/>
</g>
<g opacity="0.1">
<path d="M259 456L259 468L279 468L279 456L259 456Z" fill="#1B2547"/>
</g>
<g opacity="0.1">
<path d="M19 423L19 435L39 435L39 423L19 423Z" fill="#1B2547"/>
</g>
<g opacity="0.1">
<path d="M259 423L259 435L279 435L279 423L259 423Z" fill="#1B2547"/>
</g>
<g opacity="0.1">
<path d="M19 389L19 401L39 401L39 389L19 389Z" fill="#1B2547"/>
</g>
<g opacity="0.1">
<path d="M259 389L259 401L279 401L279 389L259 389Z" fill="#1B2547"/>
</g>
<g opacity="0.1">
<path d="M19 356L19 368L39 368L39 356L19 356Z" fill="#1B2547"/>
</g>
<g opacity="0.1">
<path d="M259 356L259 368L279 368L279 356L259 356Z" fill="#1B2547"/>
</g>
<g opacity="0.1">
<path d="M19 322L19 334L39 334L39 322L19 322Z" fill="#1B2547"/>
</g>
<g opacity="0.1">
<path d="M259 322L259 334L279 334L279 322L259 322Z" fill="#1B2547"/>
</g>
<g opacity="0.1">
<path d="M19 289L19 301L39 301L39 289L19 289Z" fill="#1B2547"/>
</g>
<g opacity="0.1">
<path d="M259 289L259 301L279 301L279 289L259 289Z" fill="#1B2547"/>
</g>
<g opacity="0.1">
<path d="M19 255L19 267L39 267L39 255L19 255Z" fill="#1B2547"/>
</g>
<g opacity="0.1">
<path d="M259 255L259 267L279 267L279 255L259 255Z" fill="#1B2547"/>
</g>
<g opacity="0.1">
<path d="M19 222L19 234L39 234L39 222L19 222Z" fill="#1B2547"/>
</g>
<g opacity="0.1">
<path d="M259 222L259 234L279 234L279 222L259 222Z" fill="#1B2547"/>
</g>
<g opacity="0.1">
<path d="M19 188L19 200L39 200L39 188L19 188Z" fill="#1B2547"/>
</g>
<g opacity="0.1">
<path d="M259 188L259 200L279 200L279 188L259 188Z" fill="#1B2547"/>
</g>
<g opacity="0.1">
<path d="M19 155L19 167L39 167L39 155L19 155Z" fill="#1B2547"/>
</g>
<g opacity="0.1">
<path d="M259 155L259 167L279 167L279 155L259 155Z" fill="#1B2547"/>
</g>
<g opacity="0.1">
<path d="M19 121L19 133L39 133L39 121L19 121Z" fill="#1B2547"/>
</g>
<g opacity="0.1">
<path d="M259 121L259 133L279 133L279 121L259 121Z" fill="#1B2547"/>
</g>
<g opacity="0.1">
<path d="M19 88L19 100L39 100L39 88L19 88Z" fill="#1B2547"/>
</g>
<g opacity="0.1">
<path d="M259 88L259 100L279 100L279 88L259 88Z" fill="#1B2547"/>
</g>
<g opacity="0.1">
<path d="M19 55L19 67L39 67L39 55L19 55Z" fill="#1B2547"/>
</g>
<g opacity="0.1">
<path d="M259 55L259 67L279 67L279 55L259 55Z" fill="#1B2547"/>
</g>
</svg>
