<svg width="24" height="27" viewBox="0 0 24 27" fill="none" xmlns="http://www.w3.org/2000/svg">
<path d="M2.0175 14.5071C2.40512 12.4963 3.90715 8.20827 9.18849 8.20827C12.4106 8.20827 14.3245 9.90411 14.3245 13.3927C14.3245 16.6148 12.4833 21.4843 6.98389 21.4843C2.04173 21.4843 1.84792 17.4869 1.84792 16.421C1.84792 15.7669 1.89637 15.1612 2.0175 14.5071ZM4.27055 15.0401C4.19787 15.5004 4.12519 15.9607 4.12519 16.421C4.12519 18.9163 5.38496 19.9823 7.12925 19.9823C10.8116 19.9823 12.0472 15.7427 12.0472 13.3685C12.0472 9.7103 9.50343 9.7103 9.0189 9.7103C8.17098 9.7103 5.11847 10.001 4.27055 15.0401Z" fill="#20252F"/>
<path d="M1.21582 14.7028C6.24095 14.7028 18.8268 10.101 20.5643 9.10496C22.3018 8.10887 22.4119 6.12552 21.1667 5.37811C19.9214 4.63069 18.1477 6.16082 17.6519 8.72159C17.1948 11.0826 16.6557 15.0805 16.6557 17.4382" stroke="#20252F" stroke-width="2.10813" stroke-linecap="round"/>
<circle cx="16.2799" cy="20.2797" r="1.27994" fill="#20252F"/>
</svg>
