<svg width="140" height="28" viewBox="0 0 140 28" fill="none" xmlns="http://www.w3.org/2000/svg">
<path d="M34.304 22L30.608 13H30.56L30.608 13.648V22H27.728V9.808H31.664L35.336 18.928L39.008 9.808H42.944V22H40.064V13.648L40.112 13H40.064L36.368 22H34.304ZM44.5117 15.904C44.5117 13.552 45.6157 9.328 50.7997 9.328C55.9837 9.328 57.0877 13.552 57.0877 15.904C57.0877 18.256 55.9837 22.48 50.7997 22.48C45.6157 22.48 44.5117 18.256 44.5117 15.904ZM47.5837 15.904C47.5837 20.08 49.7677 20.512 50.7997 20.512C51.8317 20.512 54.0157 20.08 54.0157 15.904C54.0157 11.728 51.8317 11.296 50.7997 11.296C49.7677 11.296 47.5837 11.728 47.5837 15.904ZM67.1041 17.536H69.8401C69.6481 19.312 68.5441 22.48 64.0801 22.48C59.9281 22.48 57.9601 19.792 57.9601 15.928C57.9601 9.688 62.4001 9.328 63.9841 9.328C67.7281 9.328 69.5281 11.512 69.7921 13.864H67.0561C66.9121 12.592 66.0481 11.296 64.1521 11.296C61.7761 11.296 61.0321 13.432 61.0321 15.928C61.0321 19.744 62.9521 20.512 64.3201 20.512C66.4561 20.512 67.0561 18.664 67.1041 17.536ZM77.8134 22L74.1174 13H74.0694L74.1174 13.648V22H71.2374V9.808H75.1734L78.8454 18.928L82.5174 9.808H86.4534V22H83.5734V13.648L83.6214 13H83.5734L79.8774 22H77.8134ZM97.2851 18.472H100.021C99.7331 20.056 98.5571 22.48 94.2131 22.48C92.9891 22.48 88.0211 22.264 88.0211 16.12C88.0211 12.016 90.0371 9.328 94.2371 9.328C99.5171 9.328 100.069 13.552 100.189 15.952C100.189 16.192 100.213 16.408 100.213 16.648H91.0931C91.0691 18.208 91.9091 20.512 94.4531 20.512C95.7491 20.512 97.0931 19.816 97.2851 18.472ZM91.0931 14.68H97.1651C97.1411 13.576 96.7811 11.296 94.2611 11.296C92.0051 11.296 91.0451 13.096 91.0931 14.68ZM104.527 11.776H100.351V9.808H111.583V11.776H107.407V22H104.527V11.776ZM112.426 9.808H115.066V11.008H115.114C116.194 9.688 117.802 9.328 119.05 9.328C121.858 9.328 124.93 11.104 124.93 15.832C124.93 18.4 123.922 22.48 119.146 22.48C118.81 22.48 116.266 22.48 115.306 20.752V26.44H112.426V9.808ZM115.09 15.928C115.09 18.664 116.242 20.512 118.33 20.512C119.626 20.512 121.858 19.888 121.858 16C121.858 12.544 120.202 11.296 118.45 11.296C117.178 11.296 115.09 11.968 115.09 15.928ZM125.788 15.904C125.788 13.552 126.892 9.328 132.076 9.328C137.26 9.328 138.364 13.552 138.364 15.904C138.364 18.256 137.26 22.48 132.076 22.48C126.892 22.48 125.788 18.256 125.788 15.904ZM128.86 15.904C128.86 20.08 131.044 20.512 132.076 20.512C133.108 20.512 135.292 20.08 135.292 15.904C135.292 11.728 133.108 11.296 132.076 11.296C131.044 11.296 128.86 11.728 128.86 15.904Z" fill="#20252F"/>
<path d="M2.0175 15.5071C2.40512 13.4963 3.90715 9.20827 9.18849 9.20827C12.4106 9.20827 14.3245 10.9041 14.3245 14.3927C14.3245 17.6148 12.4833 22.4843 6.98389 22.4843C2.04173 22.4843 1.84792 18.4869 1.84792 17.421C1.84792 16.7669 1.89637 16.1612 2.0175 15.5071ZM4.27055 16.0401C4.19787 16.5004 4.12519 16.9607 4.12519 17.421C4.12519 19.9163 5.38496 20.9823 7.12925 20.9823C10.8116 20.9823 12.0472 16.7427 12.0472 14.3685C12.0472 10.7103 9.50343 10.7103 9.0189 10.7103C8.17098 10.7103 5.11847 11.001 4.27055 16.0401Z" fill="#20252F"/>
<path d="M1.21582 15.7028C6.24095 15.7028 18.8268 11.101 20.5643 10.105C22.3018 9.10887 22.4119 7.12552 21.1667 6.37811C19.9214 5.63069 18.1477 7.16082 17.6519 9.72159C17.1948 12.0826 16.6557 16.0805 16.6557 18.4382" stroke="#20252F" stroke-width="2.10813" stroke-linecap="round"/>
<circle cx="16.2799" cy="21.2797" r="1.27994" fill="#20252F"/>
</svg>
