<svg width="114" height="27" viewBox="0 0 114 27" fill="none" xmlns="http://www.w3.org/2000/svg">
<path d="M8.304 21.9998L4.608 12.9998H4.56L4.608 13.6478L4.608 21.9998H1.728L1.728 9.80776H5.664L9.336 18.9278L13.008 9.80776H16.944V21.9998H14.064V13.6478L14.112 12.9998H14.064L10.368 21.9998H8.304ZM18.5117 15.9038C18.5117 13.5518 19.6157 9.32776 24.7997 9.32776C29.9837 9.32776 31.0877 13.5518 31.0877 15.9038C31.0877 18.2558 29.9837 22.4798 24.7997 22.4798C19.6157 22.4798 18.5117 18.2558 18.5117 15.9038ZM21.5837 15.9038C21.5837 20.0798 23.7677 20.5118 24.7997 20.5118C25.8317 20.5118 28.0157 20.0798 28.0157 15.9038C28.0157 11.7278 25.8317 11.2958 24.7997 11.2958C23.7677 11.2958 21.5837 11.7278 21.5837 15.9038ZM41.1041 17.5358H43.8401C43.6481 19.3118 42.5441 22.4798 38.0801 22.4798C33.9281 22.4798 31.9601 19.7918 31.9601 15.9278C31.9601 9.68776 36.4001 9.32776 37.9841 9.32776C41.7281 9.32776 43.5281 11.5118 43.7921 13.8638H41.0561C40.9121 12.5918 40.0481 11.2958 38.1521 11.2958C35.7761 11.2958 35.0321 13.4318 35.0321 15.9278C35.0321 19.7438 36.9521 20.5118 38.3201 20.5118C40.4561 20.5118 41.0561 18.6638 41.1041 17.5358ZM51.8134 21.9998L48.1174 12.9998H48.0694L48.1174 13.6478V21.9998H45.2374V9.80776H49.1734L52.8454 18.9278L56.5174 9.80776H60.4534V21.9998H57.5734V13.6478L57.6214 12.9998H57.5734L53.8774 21.9998H51.8134ZM71.2851 18.4718H74.0211C73.7331 20.0558 72.5571 22.4798 68.2131 22.4798C66.9891 22.4798 62.0211 22.2638 62.0211 16.1198C62.0211 12.0158 64.0371 9.32776 68.2371 9.32776C73.5171 9.32776 74.0691 13.5518 74.1891 15.9518C74.1891 16.1918 74.2131 16.4078 74.2131 16.6478H65.0931C65.0691 18.2078 65.9091 20.5118 68.4531 20.5118C69.7491 20.5118 71.0931 19.8158 71.2851 18.4718ZM65.0931 14.6798H71.1651C71.1411 13.5758 70.7811 11.2958 68.2611 11.2958C66.0051 11.2958 65.0451 13.0958 65.0931 14.6798ZM78.5271 11.7758H74.3511V9.80776H85.5831V11.7758H81.4071V21.9998H78.5271V11.7758ZM86.4264 9.80776H89.0664V11.0078H89.1144C90.1944 9.68776 91.8024 9.32776 93.0504 9.32776C95.8584 9.32776 98.9304 11.1038 98.9304 15.8318C98.9304 18.3998 97.9224 22.4798 93.1464 22.4798C92.8104 22.4798 90.2664 22.4798 89.3064 20.7518V26.4398H86.4264V9.80776ZM89.0904 15.9278C89.0904 18.6638 90.2424 20.5118 92.3304 20.5118C93.6264 20.5118 95.8584 19.8878 95.8584 15.9998C95.8584 12.5438 94.2024 11.2958 92.4504 11.2958C91.1784 11.2958 89.0904 11.9678 89.0904 15.9278ZM99.7882 15.9038C99.7882 13.5518 100.892 9.32776 106.076 9.32776C111.26 9.32776 112.364 13.5518 112.364 15.9038C112.364 18.2558 111.26 22.4798 106.076 22.4798C100.892 22.4798 99.7882 18.2558 99.7882 15.9038ZM102.86 15.9038C102.86 20.0798 105.044 20.5118 106.076 20.5118C107.108 20.5118 109.292 20.0798 109.292 15.9038C109.292 11.7278 107.108 11.2958 106.076 11.2958C105.044 11.2958 102.86 11.7278 102.86 15.9038Z" fill="#20252F"/>
</svg>
