<svg width="30" height="28" viewBox="0 0 30 28" fill="none" xmlns="http://www.w3.org/2000/svg">
<path fill-rule="evenodd" clip-rule="evenodd" d="M12.1176 2C6.52982 2 2 6.52982 2 12.1176C2 17.7055 6.52982 22.2353 12.1176 22.2353C14.9116 22.2353 17.441 21.1028 19.2719 19.2719L19.2646 19.2646L19.5878 18.9415C21.2322 17.1424 22.2353 14.7472 22.2353 12.1176C22.2353 6.52982 17.7055 2 12.1176 2ZM21.9835 19.1551C23.4011 17.1712 24.2353 14.7418 24.2353 12.1176C24.2353 5.42526 18.81 0 12.1176 0C5.42526 0 0 5.42526 0 12.1176C0 18.81 5.42526 24.2353 12.1176 24.2353C15.4638 24.2353 18.4933 22.879 20.6861 20.6861L28 28L29.4142 26.5858L21.9835 19.1551Z" fill="#20252F"/>
</svg>
