<svg width="50" height="51" viewBox="0 0 50 51" fill="none" xmlns="http://www.w3.org/2000/svg">
<rect y="0.527344" width="50" height="50" rx="12" fill="#F6F3EE"/>
<path d="M42.7452 24.9445C42.7484 24.9445 42.7508 24.9445 42.754 24.9445C42.9786 24.9445 43.1927 24.8497 43.3448 24.6838C43.4993 24.5154 43.5758 24.2896 43.5557 24.0613C42.7476 15.1217 35.7105 8.0416 26.8215 7.22722C26.5961 7.20941 26.3691 7.28308 26.2017 7.43931C26.0343 7.59474 25.9409 7.81412 25.9433 8.04322C26.0834 19.9238 27.6416 24.7785 42.7452 24.9445ZM42.7452 26.5862C27.6416 26.7521 26.0842 31.6068 25.9442 43.4874C25.9417 43.7165 26.0351 43.9359 26.2025 44.0913C26.3522 44.2297 26.5478 44.3066 26.749 44.3066C26.7732 44.3066 26.7981 44.3058 26.8223 44.3034C35.7113 43.489 42.7484 36.4097 43.5557 27.4694C43.5758 27.2411 43.5002 27.0152 43.3448 26.8468C43.1895 26.6785 42.973 26.5951 42.7452 26.5862ZM23.371 7.23127C14.5101 8.06912 7.49554 15.1476 6.69147 24.0629C6.67135 24.2912 6.74701 24.517 6.90235 24.6854C7.05447 24.8514 7.26937 24.9453 7.49313 24.9453C7.49635 24.9453 7.49957 24.9453 7.50279 24.9453C22.5564 24.7712 24.1106 19.9189 24.2523 8.04646C24.2547 7.81736 24.1605 7.59717 23.9931 7.44174C23.8241 7.28631 23.5979 7.21022 23.371 7.23127ZM7.50198 26.5854C7.25167 26.557 7.05528 26.6768 6.90154 26.8452C6.74701 27.0136 6.67054 27.2395 6.69067 27.4677C7.49474 36.383 14.5101 43.4615 23.371 44.2994C23.3959 44.3018 23.4217 44.3026 23.4466 44.3026C23.6478 44.3026 23.8426 44.2265 23.9923 44.0881C24.1597 43.9326 24.2539 43.7125 24.2515 43.4834C24.1098 31.6117 22.5564 26.7594 7.50198 26.5854Z" fill="#FE6D1B"/>
</svg>
