<svg width="40" height="40" viewBox="0 0 40 40" fill="none" xmlns="http://www.w3.org/2000/svg">
<path fill-rule="evenodd" clip-rule="evenodd" d="M20 40C31.0457 40 40 31.0457 40 20C40 8.9543 31.0457 0 20 0C8.9543 0 0 8.9543 0 20C0 31.0457 8.9543 40 20 40ZM22.5974 26.2775C22.605 28.2541 22.6229 29.9026 22.6372 29.9408C22.6579 29.9959 23.4241 30.0074 26.3217 29.9961L29.9801 29.9819L29.9941 22.5552C30.0078 15.2788 30.0058 15.1174 29.896 14.5773C29.7612 13.9152 29.5335 13.321 29.1971 12.7539C28.4747 11.5363 27.1704 10.5559 25.7851 10.1892C25.0524 9.99524 24.7777 9.98927 17.3676 10.006L10.054 10.0226V13.6993V17.376L13.696 17.3902L17.3381 17.4045L13.669 21.0811L10 24.7579L12.5934 27.356C14.0198 28.785 15.2115 29.9542 15.2417 29.9542C15.2719 29.9542 16.9362 28.3184 18.9401 26.319L22.5837 22.6837L22.5974 26.2775Z" fill="white"/>
</svg>
