<svg width="409" height="73" viewBox="0 0 409 73" fill="none" xmlns="http://www.w3.org/2000/svg">
<path d="M22.3585 20.9209C20.9311 20.9209 19.5284 21.5608 18.1502 22.8405C16.7721 24.1202 15.4678 25.8675 14.2373 28.0823C13.056 30.248 11.9978 32.6843 11.0626 35.3914C10.1275 38.0985 9.38918 40.904 8.84776 43.8079C8.35557 46.7119 8.10947 49.4681 8.10947 52.0768C8.10947 54.144 8.40479 55.6698 8.99542 56.6542C9.63527 57.5893 10.5458 58.0569 11.7271 58.0569C13.1545 58.0569 14.5572 57.4171 15.9353 56.1374C17.3135 54.8576 18.6178 53.135 19.8483 50.9693C21.0788 48.8037 22.137 46.3919 23.0229 43.7341C23.9581 41.027 24.6718 38.2215 25.164 35.3176C25.7054 32.4136 25.9761 29.6081 25.9761 26.9011C25.9761 24.7354 25.6808 23.2096 25.0901 22.3237C24.4995 21.3885 23.5889 20.9209 22.3585 20.9209ZM0.578918 47.7209C0.578918 45.5552 0.874234 43.1927 1.46487 40.6333C2.0555 38.0739 2.96606 35.5391 4.19654 33.0289C5.42702 30.5187 6.9036 28.2546 8.62628 26.2366C10.3982 24.1694 12.4654 22.5206 14.8279 21.2901C17.2397 20.0596 19.8975 19.4444 22.8014 19.4444C26.0991 19.4444 28.7078 20.4287 30.6273 22.3975C32.5469 24.3171 33.5066 27.2702 33.5066 31.257C33.5066 33.4226 33.2113 35.7852 32.6207 38.3446C32.0301 40.904 31.1195 43.4388 29.889 45.949C28.6585 48.4591 27.1573 50.7478 25.3855 52.815C23.6628 54.833 21.5956 56.4573 19.1838 57.6878C16.8213 58.9182 14.1881 59.5335 11.2841 59.5335C7.98642 59.5335 5.3778 58.5491 3.45825 56.5803C1.5387 54.6116 0.578918 51.6584 0.578918 47.7209Z" fill="black"/>
<path d="M41.4081 43.8079C42.6878 39.0336 43.6722 34.3578 44.3612 29.7804C45.0995 25.1538 45.7148 20.8471 46.2069 16.8603C46.7484 12.8244 47.3144 9.37901 47.905 6.52428C48.0035 5.786 48.1511 5.07232 48.348 4.38325C48.5941 3.69418 48.914 3.07894 49.3078 2.53752C49.7015 1.99611 50.1691 1.57774 50.7105 1.28243C51.2519 0.937893 51.8918 0.765625 52.6301 0.765625C54.2543 0.765625 55.3617 1.25782 55.9524 2.24221C56.543 3.17737 56.6907 4.35864 56.3953 5.786C55.9524 7.85321 55.1895 10.2896 54.1066 13.0951C53.0238 15.8513 51.7933 18.9029 50.4152 22.2499C49.0863 25.5476 47.7327 29.0421 46.3546 32.7336C44.9765 36.3758 43.7706 40.1411 42.737 44.0294L41.4081 43.8079ZM34.8373 55.5467C34.8373 53.9225 35.4279 52.4951 36.6092 51.2646C37.8397 50.0342 39.2424 49.4189 40.8174 49.4189C42.0971 49.4189 43.1061 49.8127 43.8444 50.6002C44.6319 51.3385 45.0257 52.2982 45.0257 53.4795C45.0257 54.5623 44.7304 55.5713 44.1397 56.5065C43.5983 57.3924 42.86 58.1061 41.9249 58.6475C41.0389 59.2382 40.0299 59.5335 38.8979 59.5335C37.6674 59.5335 36.683 59.1643 35.9447 58.4261C35.2064 57.6878 34.8373 56.728 34.8373 55.5467Z" fill="black"/>
<path d="M77.8998 58.4999L66.5301 30.814H66.3824L66.5301 32.8074V58.4999H57.6706V20.9948H69.7786L81.0744 49.0498L92.3702 20.9948H104.478V58.4999H95.6187V32.8074L95.7664 30.814H95.6187L84.2491 58.4999H77.8998Z" fill="black"/>
<path d="M121.999 20.9948C124.362 20.0104 127.069 19.5182 130.12 19.5182C133.172 19.5182 135.879 20.0104 138.242 20.9948C140.604 21.9299 142.475 23.1112 143.853 24.5386C145.231 25.9659 146.363 27.6394 147.249 29.5589C148.135 31.4785 148.725 33.2504 149.021 34.8746C149.316 36.4988 149.464 38.1231 149.464 39.7473C149.464 41.3716 149.316 42.9958 149.021 44.62C148.725 46.2443 148.135 48.0162 147.249 49.9357C146.363 51.8553 145.231 53.5287 143.853 54.9561C142.475 56.3834 140.604 57.5647 138.242 58.4999C135.879 59.4843 133.172 59.9765 130.12 59.9765C127.069 59.9765 124.362 59.4843 121.999 58.4999C119.637 57.5647 117.766 56.3834 116.388 54.9561C115.01 53.5287 113.878 51.8799 112.992 50.0095C112.106 48.09 111.516 46.3181 111.22 44.6939C110.925 43.0204 110.777 41.3716 110.777 39.7473C110.777 38.1231 110.925 36.4988 111.22 34.8746C111.516 33.2504 112.106 31.4785 112.992 29.5589C113.878 27.6394 115.01 25.9659 116.388 24.5386C117.766 23.1112 119.637 21.9299 121.999 20.9948ZM133.074 26.0151C132.138 25.7198 131.154 25.5722 130.12 25.5722C129.087 25.5722 128.102 25.7198 127.167 26.0151C126.232 26.3104 125.174 26.9011 123.993 27.787C122.861 28.673 121.95 30.1496 121.261 32.2168C120.572 34.2348 120.227 36.7449 120.227 39.7473C120.227 42.7497 120.572 45.2845 121.261 47.3517C121.95 49.3697 122.861 50.8217 123.993 51.7076C125.174 52.5936 126.232 53.1842 127.167 53.4795C128.102 53.7748 129.087 53.9225 130.12 53.9225C131.154 53.9225 132.138 53.7748 133.074 53.4795C134.009 53.1842 135.042 52.5936 136.174 51.7076C137.356 50.8217 138.291 49.3697 138.98 47.3517C139.669 45.2845 140.014 42.7497 140.014 39.7473C140.014 36.7449 139.669 34.2348 138.98 32.2168C138.291 30.1496 137.356 28.673 136.174 27.787C135.042 26.9011 134.009 26.3104 133.074 26.0151Z" fill="black"/>
<path d="M181.753 44.7677H190.169C190.022 45.9982 189.776 47.2287 189.431 48.4591C189.087 49.6896 188.471 51.0185 187.585 52.4459C186.749 53.8733 185.715 55.1284 184.485 56.2112C183.254 57.294 181.581 58.18 179.464 58.869C177.397 59.6073 175.059 59.9765 172.45 59.9765C166.249 59.9765 161.548 58.1553 158.349 54.5131C155.199 50.8709 153.624 45.9736 153.624 39.8212C153.624 36.1789 154.116 33.0289 155.101 30.371C156.134 27.7132 157.315 25.7198 158.644 24.3909C160.023 23.0128 161.671 21.9299 163.591 21.1424C165.511 20.3549 167.086 19.8873 168.316 19.7397C169.546 19.592 170.826 19.5182 172.155 19.5182C177.569 19.5182 181.777 20.8717 184.78 23.5788C187.831 26.2366 189.579 29.5343 190.022 33.4719H181.605C181.408 31.3062 180.547 29.4605 179.021 27.9347C177.495 26.3597 175.379 25.5722 172.672 25.5722C166.273 25.5722 163.074 30.3218 163.074 39.8212C163.074 42.5774 163.394 44.94 164.034 46.9087C164.674 48.8775 165.511 50.3541 166.544 51.3385C167.627 52.2736 168.71 52.9381 169.793 53.3319C170.875 53.7256 172.007 53.9225 173.189 53.9225C176.093 53.9225 178.209 52.9873 179.538 51.117C180.867 49.1974 181.605 47.081 181.753 44.7677Z" fill="black"/>
<path d="M216.173 58.4999L204.804 30.814H204.656L204.804 32.8074V58.4999H195.944V20.9948H208.052L219.348 49.0498L230.644 20.9948H242.752V58.4999H233.892V32.8074L234.04 30.814H233.892L222.523 58.4999H216.173Z" fill="black"/>
<path d="M277.549 47.647H285.965C285.67 49.0744 285.202 50.4279 284.563 51.7076C283.972 52.9381 283.037 54.2424 281.757 55.6205C280.527 56.9495 278.73 58.0077 276.368 58.7952C274.005 59.5827 271.249 59.9765 268.099 59.9765C266.917 59.9765 265.736 59.9026 264.555 59.755C263.423 59.6565 261.848 59.2382 259.83 58.4999C257.812 57.7616 256.065 56.7772 254.588 55.5467C253.161 54.267 251.881 52.3229 250.749 49.7142C249.617 47.0564 249.051 43.9556 249.051 40.4118C249.051 33.8656 250.65 28.7468 253.85 25.0554C257.098 21.3639 261.873 19.5182 268.173 19.5182C279.838 19.5182 285.941 26.3105 286.482 39.895C286.482 40.1903 286.482 40.5594 286.482 41.0024C286.531 41.4454 286.556 41.7899 286.556 42.036H258.501C258.501 43.3649 258.673 44.6693 259.018 45.949C259.362 47.2287 259.904 48.5084 260.642 49.7881C261.38 51.0185 262.463 52.0275 263.89 52.815C265.318 53.5533 266.967 53.9225 268.837 53.9225C270.953 53.9225 272.848 53.3811 274.522 52.2982C276.245 51.1662 277.254 49.6158 277.549 47.647ZM258.501 35.982H277.18C277.18 34.9484 277.057 33.9148 276.811 32.8812C276.614 31.8476 276.22 30.7402 275.629 29.5589C275.039 28.3777 274.103 27.4179 272.824 26.6796C271.593 25.9413 270.068 25.5722 268.246 25.5722C265.047 25.5722 262.586 26.6304 260.863 28.7468C259.19 30.8632 258.403 33.275 258.501 35.982Z" fill="black"/>
<path d="M301.303 27.0487H288.457V20.9948H323.009V27.0487H310.163V58.4999H301.303V27.0487Z" fill="black"/>
<path d="M327.08 20.9948H335.201V24.6862H335.349C338.105 21.2409 342.141 19.5182 347.457 19.5182C349.721 19.5182 351.862 19.8873 353.88 20.6256C355.947 21.3639 357.867 22.496 359.639 24.0218C361.46 25.5476 362.887 27.6394 363.921 30.2972C365.004 32.9551 365.545 36.0313 365.545 39.5258C365.545 41.2977 365.397 43.045 365.102 44.7677C364.856 46.4411 364.314 48.2377 363.478 50.1572C362.69 52.0275 361.657 53.6764 360.377 55.1037C359.146 56.4819 357.424 57.6385 355.209 58.5737C353.043 59.5089 350.558 59.9765 347.752 59.9765C347.162 59.9765 346.522 59.9272 345.833 59.8288C345.144 59.7796 344.085 59.6073 342.658 59.312C341.28 59.0659 339.975 58.5491 338.745 57.7616C337.564 56.9249 336.629 55.8913 335.94 54.6608V72.1582H327.08V20.9948ZM335.275 39.8212C335.275 44.1525 336.136 47.5978 337.859 50.1572C339.582 52.6674 342.043 53.9225 345.242 53.9225C346.423 53.9225 347.555 53.7502 348.638 53.4057C349.721 53.0611 350.853 52.4459 352.034 51.56C353.265 50.674 354.249 49.2467 354.987 47.2779C355.726 45.2599 356.095 42.8481 356.095 40.0426C356.095 35.0715 355.086 31.4293 353.068 29.1159C351.099 26.7534 348.613 25.5722 345.611 25.5722C344.479 25.5722 343.372 25.769 342.289 26.1628C341.255 26.5073 340.172 27.1472 339.04 28.0823C337.908 29.0175 336.998 30.4941 336.309 32.5121C335.62 34.5301 335.275 36.9664 335.275 39.8212Z" fill="black"/>
<path d="M380.882 20.9948C383.245 20.0104 385.952 19.5182 389.003 19.5182C392.055 19.5182 394.762 20.0104 397.125 20.9948C399.487 21.9299 401.358 23.1112 402.736 24.5386C404.114 25.9659 405.246 27.6394 406.132 29.5589C407.018 31.4785 407.608 33.2504 407.904 34.8746C408.199 36.4988 408.347 38.1231 408.347 39.7473C408.347 41.3716 408.199 42.9958 407.904 44.62C407.608 46.2443 407.018 48.0162 406.132 49.9357C405.246 51.8553 404.114 53.5287 402.736 54.9561C401.358 56.3834 399.487 57.5647 397.125 58.4999C394.762 59.4843 392.055 59.9765 389.003 59.9765C385.952 59.9765 383.245 59.4843 380.882 58.4999C378.52 57.5647 376.649 56.3834 375.271 54.9561C373.893 53.5287 372.761 51.8799 371.875 50.0095C370.989 48.09 370.399 46.3181 370.103 44.6939C369.808 43.0204 369.66 41.3716 369.66 39.7473C369.66 38.1231 369.808 36.4988 370.103 34.8746C370.399 33.2504 370.989 31.4785 371.875 29.5589C372.761 27.6394 373.893 25.9659 375.271 24.5386C376.649 23.1112 378.52 21.9299 380.882 20.9948ZM391.957 26.0151C391.021 25.7198 390.037 25.5722 389.003 25.5722C387.97 25.5722 386.985 25.7198 386.05 26.0151C385.115 26.3104 384.057 26.9011 382.876 27.787C381.744 28.673 380.833 30.1496 380.144 32.2168C379.455 34.2348 379.11 36.7449 379.11 39.7473C379.11 42.7497 379.455 45.2845 380.144 47.3517C380.833 49.3697 381.744 50.8217 382.876 51.7076C384.057 52.5936 385.115 53.1842 386.05 53.4795C386.985 53.7748 387.97 53.9225 389.003 53.9225C390.037 53.9225 391.021 53.7748 391.957 53.4795C392.892 53.1842 393.925 52.5936 395.057 51.7076C396.239 50.8217 397.174 49.3697 397.863 47.3517C398.552 45.2845 398.897 42.7497 398.897 39.7473C398.897 36.7449 398.552 34.2348 397.863 32.2168C397.174 30.1496 396.239 28.673 395.057 27.787C393.925 26.9011 392.892 26.3104 391.957 26.0151Z" fill="black"/>
</svg>
