<svg width="50" height="51" viewBox="0 0 50 51" fill="none" xmlns="http://www.w3.org/2000/svg">
<rect y="0.527344" width="50" height="50" rx="12" fill="#F6F3EE"/>
<path fill-rule="evenodd" clip-rule="evenodd" d="M7.81778 24.5317C17.753 20.2031 24.378 17.3494 27.6928 15.9706C37.1573 12.034 39.124 11.3502 40.4058 11.3274C40.6877 11.3226 41.3181 11.3925 41.7264 11.7238C42.0712 12.0036 42.1661 12.3815 42.2115 12.6468C42.2569 12.912 42.3134 13.5163 42.2685 13.9884C41.7556 19.3774 39.5363 32.4549 38.4073 38.4906C37.9296 41.0445 36.9889 41.9009 36.0782 41.9847C34.511 42.1289 33.2424 41.2245 31.8304 40.2179L31.8302 40.2177C31.4591 39.9532 31.0782 39.6816 30.6794 39.4202C29.1136 38.3938 27.9034 37.5697 26.69 36.7434C25.579 35.9868 24.4654 35.2284 23.0737 34.3113C20.1777 32.4029 21.39 31.2342 23.0066 29.6758C23.2683 29.4235 23.5406 29.161 23.8078 28.8835C23.927 28.7596 24.5105 28.2172 25.333 27.4526L25.3331 27.4525C27.9715 24.9996 33.0698 20.2597 33.1984 19.7112C33.2195 19.6212 33.2391 19.2858 33.0399 19.1087C32.8406 18.9315 32.5465 18.9921 32.3342 19.0403C32.0334 19.1086 27.2416 22.2758 17.9589 28.5419C16.5987 29.4758 15.3668 29.9309 14.263 29.9071C13.0461 29.8808 10.7054 29.219 8.96529 28.6534C8.70993 28.5704 8.46084 28.4921 8.22043 28.4165L8.21989 28.4163C6.45121 27.8602 5.15238 27.4517 5.2824 26.4146C5.35934 25.8009 6.20447 25.1732 7.81778 24.5317Z" fill="#FE6D1B"/>
</svg>
