<svg width="54" height="54" viewBox="0 0 54 54" fill="none" xmlns="http://www.w3.org/2000/svg">
<path fill-rule="evenodd" clip-rule="evenodd" d="M27 54C41.9117 54 54 41.9117 54 27C54 12.0883 41.9117 0 27 0C12.0883 0 0 12.0883 0 27C0 41.9117 12.0883 54 27 54ZM30.3767 35.1608C30.3865 37.7303 30.4098 39.8734 30.4284 39.923C30.4552 39.9946 31.4514 40.0096 35.2182 39.9949L39.9741 39.9764L39.9923 30.3218C40.0101 20.8624 40.0076 20.6526 39.8648 19.9505C39.6896 19.0897 39.3935 18.3173 38.9562 17.58C38.0171 15.9972 36.3215 14.7227 34.5207 14.2459C33.5682 13.9938 33.211 13.986 23.5779 14.0078L14.0702 14.0294V18.8091V23.5888L18.8049 23.6073L23.5395 23.6258L18.7697 28.4055L14 33.1852L17.3715 36.5629C19.2258 38.4205 20.775 39.9405 20.8142 39.9405C20.8534 39.9405 23.017 37.8139 25.6222 35.2147L30.3588 30.4889L30.3767 35.1608Z" fill="#E94E1B"/>
</svg>
