<svg width="41" height="42" viewBox="0 0 41 42" fill="none" xmlns="http://www.w3.org/2000/svg">
<rect width="41" height="42" rx="10" fill="white"/>
<path d="M7.96468 13C7.13932 13 7 13.4232 7 13.8766C7 14.6948 7.64881 19.1121 11.1972 24.1917C13.7686 27.8773 17.1583 30 20.1586 30C21.9761 30 22.1641 29.5152 22.1641 28.7604V25.3914C22.1641 24.4825 22.3642 24.3333 22.9426 24.3333C23.3564 24.3333 24.195 24.6167 25.8197 26.6C27.6936 28.8871 28.0328 30 29.1073 30H31.9463C32.6049 30 32.9847 29.7121 32.9998 29.15C33.002 29.0072 32.9819 28.8442 32.9364 28.6674C32.7262 28.0146 31.7651 26.4209 30.5628 24.9C29.8955 24.0568 29.2391 23.2216 28.938 22.7706C28.7322 22.4736 28.6543 22.2661 28.663 22.0667C28.6717 21.8581 28.7757 21.6548 28.9338 21.376C28.9056 21.376 32.5705 15.9954 32.9279 14.182C32.9777 14.0098 33.0021 13.8489 32.9956 13.7083C32.9783 13.2981 32.708 13 32.0732 13H29.2384C28.5236 13 28.1915 13.452 27.9987 13.9076C27.9987 13.9076 26.2335 17.7135 24.195 20.225C23.5343 20.9503 23.1985 20.9333 22.8411 20.9333C22.6504 20.9333 22.1641 20.6922 22.1641 20.0258V14.151C22.1641 13.3645 21.9795 13 21.3729 13H16.3379C15.896 13 15.6652 13.3611 15.6652 13.726C15.6652 14.4808 16.6379 14.6658 16.7484 16.7852V20.8891C16.7484 21.8864 16.5854 22.0667 16.2279 22.0667C15.2639 22.0667 13.3658 18.6649 12.0942 14.2086C11.8191 13.3314 11.544 13 10.8291 13H7.96468Z" fill="#E94E1B"/>
</svg>
