<svg width="189" height="38" viewBox="0 0 189 38" fill="none" xmlns="http://www.w3.org/2000/svg">
<path d="M8.57366 30.3684C6.38559 30.3684 4.66639 29.7544 3.41607 28.5264C2.16574 27.2761 1.54058 25.6127 1.54058 23.5363C1.54058 22.018 1.78618 20.5891 2.27738 19.2494C2.76858 17.8875 3.44956 16.7153 4.32032 15.7329C5.19108 14.7505 6.24046 13.969 7.46846 13.3885C8.69646 12.808 10.0473 12.5178 11.5209 12.5178C13.8429 12.5178 15.6179 13.1429 16.8459 14.3933C18.0962 15.6436 18.7214 17.307 18.7214 19.3834C18.7214 20.6337 18.4981 21.9175 18.0516 23.2348C17.605 24.5298 16.9464 25.702 16.0756 26.7514C15.2272 27.8008 14.1666 28.6715 12.894 29.3637C11.6437 30.0335 10.2035 30.3684 8.57366 30.3684ZM9.00904 27.1868C9.92445 27.1868 10.7506 26.9523 11.4874 26.4835C12.2242 25.9923 12.8382 25.3783 13.3294 24.6415C13.8429 23.9047 14.2336 23.0786 14.5015 22.1631C14.7918 21.2477 14.9369 20.3658 14.9369 19.5174C14.9369 18.3563 14.6243 17.4409 13.9992 16.7711C13.3963 16.079 12.4809 15.7329 11.2529 15.7329C10.3375 15.7329 9.5114 15.9562 8.7746 16.4027C8.0378 16.8269 7.41264 17.3963 6.89911 18.1107C6.40792 18.8252 6.02835 19.6513 5.76043 20.5891C5.4925 21.5045 5.35854 22.4422 5.35854 23.4023C5.35854 24.4963 5.69344 25.4006 6.36326 26.1151C7.03308 26.8295 7.915 27.1868 9.00904 27.1868ZM24.116 23.6367H21.9726C22.3075 22.2301 22.6201 20.7789 22.9104 19.2829C23.2006 17.7647 23.4239 16.3692 23.5802 15.0966C23.7365 13.9356 23.8593 12.8304 23.9486 11.781C24.0602 10.7316 24.1942 9.86084 24.3505 9.16869C24.5068 8.2756 24.8193 7.65044 25.2882 7.29321C25.7571 6.93597 26.3487 6.75735 27.0632 6.75735C27.8893 6.75735 28.4922 6.9583 28.8717 7.36019C29.2736 7.73975 29.3964 8.2756 29.2401 8.96775C29.1285 9.65989 28.8382 10.5083 28.3694 11.5131C27.9228 12.5178 27.4539 13.6006 26.9627 14.7617C26.4939 15.9897 26.0027 17.3851 25.4892 18.948C24.9756 20.5109 24.5179 22.0738 24.116 23.6367ZM21.7047 30.3014C21.1242 30.3014 20.6665 30.1451 20.3316 29.8325C19.9967 29.4976 19.8292 29.0623 19.8292 28.5264C19.8292 27.678 20.0971 26.9858 20.633 26.45C21.1912 25.9141 21.8721 25.6462 22.6759 25.6462C23.2788 25.6462 23.7365 25.8136 24.049 26.1486C24.384 26.4611 24.5514 26.8742 24.5514 27.3877C24.5514 28.2585 24.2723 28.9618 23.7141 29.4976C23.1783 30.0335 22.5085 30.3014 21.7047 30.3014Z" fill="#242A36"/>
<path d="M41.3021 30.5L36.3273 18.386H36.2627L36.3273 19.2582V30.5H32.4509V14.0896H37.7487L42.6912 26.3651L47.6337 14.0896H52.9316V30.5H49.0551V19.2582L49.1197 18.386H49.0551L44.0803 30.5H41.3021ZM55.6877 22.2948C55.6877 19.129 57.1737 13.4435 64.1513 13.4435C71.129 13.4435 72.615 19.129 72.615 22.2948C72.615 25.4606 71.129 31.1461 64.1513 31.1461C57.1737 31.1461 55.6877 25.4606 55.6877 22.2948ZM59.8226 22.2948C59.8226 27.9157 62.7623 28.4972 64.1513 28.4972C65.5404 28.4972 68.4801 27.9157 68.4801 22.2948C68.4801 16.6739 65.5404 16.0925 64.1513 16.0925C62.7623 16.0925 59.8226 16.6739 59.8226 22.2948ZM86.7431 24.4915H90.4258C90.1673 26.882 88.6814 31.1461 82.6728 31.1461C77.0843 31.1461 74.4353 27.528 74.4353 22.3271C74.4353 13.9281 80.4116 13.4435 82.5436 13.4435C87.583 13.4435 90.0058 16.3832 90.3612 19.549H86.6785C86.4847 17.8369 85.3218 16.0925 82.7697 16.0925C79.5717 16.0925 78.5702 18.9675 78.5702 22.3271C78.5702 27.4634 81.1546 28.4972 82.9959 28.4972C85.8709 28.4972 86.6785 26.0098 86.7431 24.4915ZM101.804 30.5L96.829 18.386H96.7644L96.829 19.2582V30.5H92.9525V14.0896H98.2504L103.193 26.3651L108.135 14.0896H113.433V30.5H109.557V19.2582L109.621 18.386H109.557L104.582 30.5H101.804ZM128.659 25.7513H132.341C131.954 27.8834 130.371 31.1461 124.524 31.1461C122.876 31.1461 116.189 30.8553 116.189 22.5855C116.189 17.0616 118.903 13.4435 124.556 13.4435C131.663 13.4435 132.406 19.129 132.567 22.3594C132.567 22.6825 132.6 22.9732 132.6 23.2962H120.324C120.292 25.396 121.423 28.4972 124.847 28.4972C126.591 28.4972 128.4 27.5603 128.659 25.7513ZM120.324 20.6473H128.497C128.465 19.1613 127.98 16.0925 124.588 16.0925C121.552 16.0925 120.26 18.5153 120.324 20.6473ZM139.052 16.7385H133.432V14.0896H148.55V16.7385H142.929V30.5H139.052V16.7385ZM150.331 14.0896H153.884V15.7048H153.949C155.403 13.9281 157.567 13.4435 159.247 13.4435C163.026 13.4435 167.161 15.834 167.161 22.1979C167.161 25.6544 165.805 31.1461 159.376 31.1461C158.924 31.1461 155.5 31.1461 154.208 28.8202V36.4762H150.331V14.0896ZM153.917 22.3271C153.917 26.0098 155.467 28.4972 158.278 28.4972C160.022 28.4972 163.026 27.6573 163.026 22.424C163.026 17.7723 160.798 16.0925 158.439 16.0925C156.727 16.0925 153.917 16.997 153.917 22.3271ZM168.962 22.2948C168.962 19.129 170.448 13.4435 177.426 13.4435C184.403 13.4435 185.889 19.129 185.889 22.2948C185.889 25.4606 184.403 31.1461 177.426 31.1461C170.448 31.1461 168.962 25.4606 168.962 22.2948ZM173.097 22.2948C173.097 27.9157 176.037 28.4972 177.426 28.4972C178.815 28.4972 181.754 27.9157 181.754 22.2948C181.754 16.6739 178.815 16.0925 177.426 16.0925C176.037 16.0925 173.097 16.6739 173.097 22.2948Z" fill="#242A36"/>
</svg>
