<svg width="50" height="51" viewBox="0 0 50 51" fill="none" xmlns="http://www.w3.org/2000/svg">
<rect y="0.527344" width="50" height="50" rx="12" fill="#F6F3EE"/>
<path d="M10.5561 15.9277C9.56562 15.9277 9.39844 16.4356 9.39844 16.9796C9.39844 17.9615 10.177 23.2622 14.4351 29.3577C17.5208 33.7805 21.5883 36.3277 25.1887 36.3277C27.3698 36.3277 27.5954 35.746 27.5954 34.8402V30.7974C27.5954 29.7067 27.8355 29.5277 28.5296 29.5277C29.0261 29.5277 30.0324 29.8677 31.9821 32.2477C34.2307 34.9922 34.6378 36.3277 35.9272 36.3277H39.334C40.1243 36.3277 40.58 35.9823 40.5982 35.3077C40.6008 35.1364 40.5767 34.9408 40.5221 34.7287C40.2699 33.9453 39.1165 32.0329 37.6737 30.2077C36.8731 29.1959 36.0854 28.1937 35.7241 27.6524C35.4771 27.2961 35.3836 27.0471 35.394 26.8077C35.4044 26.5575 35.5292 26.3135 35.719 25.979C35.6852 25.979 40.083 19.5222 40.5119 17.3462C40.5717 17.1395 40.601 16.9464 40.5932 16.7777C40.5724 16.2854 40.248 15.9277 39.4863 15.9277H36.0846C35.2267 15.9277 34.8283 16.4701 34.5969 17.0168C34.5969 17.0168 32.4786 21.584 30.0324 24.5977C29.2396 25.4681 28.8367 25.4477 28.4077 25.4477C28.179 25.4477 27.5954 25.1584 27.5954 24.3587V17.309C27.5954 16.3651 27.3738 15.9277 26.6459 15.9277H20.604C20.0737 15.9277 19.7967 16.3611 19.7967 16.799C19.7967 17.7047 20.9639 17.9267 21.0965 20.4699V25.3946C21.0965 26.5914 20.9009 26.8077 20.472 26.8077C19.3152 26.8077 17.0374 22.7256 15.5115 17.378C15.1813 16.3254 14.8512 15.9277 13.9934 15.9277H10.5561Z" fill="#FE6D1B"/>
</svg>
