<svg width="266" height="50" viewBox="0 0 266 50" fill="none" xmlns="http://www.w3.org/2000/svg">
<path d="M10.8229 39.4382C8.10619 39.4382 5.94454 38.6203 4.33791 36.9844C2.73128 35.3486 1.92796 33.2599 1.92796 30.7185C1.92796 28.7906 2.24929 26.9649 2.89194 25.2414C3.53459 23.4887 4.41094 21.9843 5.52098 20.7282C6.63101 19.4429 7.96014 18.4351 9.50835 17.7048C11.0858 16.9453 12.78 16.5656 14.5911 16.5656C17.4831 16.5656 19.7178 17.3689 21.2952 18.9755C22.8726 20.5821 23.6613 22.6708 23.6613 25.2414C23.6613 26.8188 23.3692 28.4546 22.785 30.1489C22.2007 31.8432 21.3536 33.3768 20.2436 34.7497C19.1628 36.1227 17.819 37.2473 16.2124 38.1237C14.635 39 12.8385 39.4382 10.8229 39.4382ZM11.1734 36.5462C12.5171 36.5462 13.744 36.1957 14.8541 35.4946C15.9641 34.7935 16.9135 33.9172 17.7022 32.8656C18.4909 31.7848 19.1043 30.5725 19.5425 29.2287C19.9807 27.885 20.1998 26.5851 20.1998 25.329C20.1998 23.5179 19.7032 22.0865 18.71 21.0349C17.746 19.9833 16.3438 19.4575 14.5035 19.4575C13.0722 19.4575 11.7868 19.7788 10.6476 20.4215C9.50835 21.0641 8.54437 21.9113 7.75566 22.9629C6.99616 23.9853 6.39732 25.183 5.95915 26.5559C5.55019 27.8996 5.34571 29.2726 5.34571 30.6747C5.34571 32.3982 5.87151 33.815 6.92313 34.925C8.00395 36.0058 9.42071 36.5462 11.1734 36.5462ZM30.2069 31.4634H28.3665C28.9216 29.0681 29.4328 26.6289 29.9001 24.1459C30.3675 21.6338 30.7473 19.3699 31.0394 17.3543C31.2147 16.069 31.3899 14.8713 31.5652 13.7613C31.7405 12.622 31.9303 11.6872 32.1348 10.9569C32.3393 10.1098 32.646 9.52559 33.055 9.20426C33.4932 8.88293 34.0482 8.72227 34.72 8.72227C35.4211 8.72227 35.9323 8.89754 36.2537 9.24808C36.575 9.5694 36.7064 10.0222 36.648 10.6064C36.6188 11.2783 36.3997 12.1254 35.9907 13.1478C35.611 14.1702 35.1874 15.3241 34.72 16.6094C34.0774 18.5081 33.3325 20.772 32.4854 23.4011C31.6382 26.0301 30.8787 28.7175 30.2069 31.4634ZM27.8846 39.4382C27.2419 39.4382 26.7307 39.2629 26.3509 38.9124C25.9712 38.5326 25.7813 38.0506 25.7813 37.4664C25.7813 36.6193 26.0588 35.9036 26.6139 35.3193C27.1981 34.7059 27.8992 34.3992 28.7171 34.3992C29.3889 34.3992 29.9148 34.5891 30.2945 34.9688C30.6743 35.3193 30.8641 35.7867 30.8641 36.371C30.8641 37.2181 30.572 37.9484 29.9878 38.5618C29.4036 39.1461 28.7025 39.4382 27.8846 39.4382Z" fill="#242A36"/>
<path d="M54.7555 37.6538L50.2755 24.9745H50.1065L50.2755 26.0734V37.6538H42.1608V16.1835H53.2763L57.4604 29.6658H57.5872L61.7714 16.1835H72.8869V37.6538H64.7722V26.0734L64.9412 24.9745H64.7722L60.3344 37.6538H54.7555ZM88.2044 21.0017C87.3169 21.0017 86.7252 21.2975 86.1758 21.8469C85.2459 22.819 84.781 24.3828 84.781 26.9187C84.781 29.37 85.2037 31.0183 86.218 32.0327C86.8097 32.6244 87.4437 32.8357 88.2044 32.8357C89.092 32.8357 89.6837 32.5398 90.2331 31.9904C91.163 31.0183 91.6279 29.4545 91.6279 26.9187C91.6279 24.3828 91.163 22.819 90.2331 21.8469C89.6837 21.2975 89.092 21.0017 88.2044 21.0017ZM100.757 26.8764C100.757 30.8915 99.32 33.5964 97.5449 35.287C94.6709 38.0342 90.7826 38.4146 88.2044 38.4146C85.5418 38.4146 81.6957 37.9919 78.864 35.287C77.5961 34.0613 75.6519 31.441 75.6519 26.8764C75.6519 22.9881 77.1735 20.1986 78.9063 18.5503C81.738 15.8031 85.6686 15.4228 88.2467 15.4228C90.4445 15.4228 94.5441 15.6341 97.5871 18.5503C99.4468 20.3254 100.757 22.9881 100.757 26.8764ZM117.675 29.2009H125.959C125.663 31.9904 124.395 34.0613 123.085 35.3715C120.296 38.161 116.661 38.4146 113.914 38.4146C111.167 38.4146 107.743 38.0765 105.123 35.5829C103.643 34.1881 102.037 31.61 102.037 27.4258C102.037 23.4107 103.643 20.3677 105.503 18.5081C108.166 15.9299 111.589 15.296 114.505 15.296C119.028 15.296 121.648 16.8175 123.17 18.339C124.48 19.6915 125.621 21.8047 125.79 24.5096H117.633C117.633 23.6643 117.422 22.4386 116.619 21.6356C116.069 21.0862 115.351 20.8749 114.59 20.8749C113.702 20.8749 113.026 21.1285 112.434 21.7624C111.336 22.9458 111.167 25.0168 111.167 26.7073C111.167 27.8907 111.209 30.5957 112.477 31.9481C113.111 32.6666 113.829 32.8357 114.632 32.8357C115.266 32.8357 116.027 32.7511 116.661 32.1172C117.337 31.3987 117.675 30.0885 117.675 29.2009ZM141.3 37.6538L136.82 24.9745H136.651L136.82 26.0734V37.6538H128.705V16.1835H139.821L144.005 29.6658H144.132L148.316 16.1835H159.431V37.6538H151.317V26.0734L151.486 24.9745H151.317L146.879 37.6538H141.3ZM178.003 31.441H186.71C186.118 33.2583 184.977 35.3293 182.441 36.8085C179.736 38.3723 176.862 38.4146 174.622 38.4146C171.283 38.4146 167.775 38.1187 165.113 35.4561C163.464 33.8078 162.196 31.1451 162.196 27.5526C162.196 24.1292 163.38 21.0017 165.409 18.8884C168.029 16.1413 171.41 15.4228 174.707 15.4228C179.609 15.4228 182.441 16.902 184.089 18.5926C187.006 21.5934 187.048 25.6507 187.048 28.1866V28.6938H171.283C171.241 29.8349 171.537 31.1874 172.086 31.9481C172.636 32.6666 173.481 33.1738 174.791 33.1738C175.425 33.1738 176.313 33.0893 176.904 32.7511C177.581 32.3708 177.876 31.8636 178.003 31.441ZM171.326 24.4673H177.919C177.919 23.5375 177.581 22.2273 176.989 21.5934C176.355 20.8749 175.51 20.7058 174.791 20.7058C173.904 20.7058 173.016 20.9171 172.382 21.6356C171.706 22.3541 171.368 23.5798 171.326 24.4673ZM194.209 21.9737H187.278V16.1835H210.185V22.0583H203.254V37.6538H194.209V21.9737ZM211.865 16.1835H220.318V18.5503H220.487C222.474 15.7609 225.348 15.4228 227.419 15.4228C229.236 15.4228 231.983 15.6341 234.181 17.7473C234.857 18.3813 237.224 20.9594 237.224 26.5383C237.224 29.9194 236.294 33.5119 234.054 35.7942C231.941 37.9919 229.405 38.4146 226.996 38.4146C225.094 38.4146 222.643 38.1187 220.741 36.09V45.4727H211.865V16.1835ZM220.36 27.1723C220.36 28.3557 220.445 30.173 221.459 31.4832C222.22 32.4553 223.192 32.8357 224.206 32.8357C225.348 32.8357 226.151 32.413 226.785 31.7368C228.01 30.3843 228.095 28.3134 228.095 27.1723C228.095 25.9043 227.968 23.8334 226.785 22.5232C226.32 21.9737 225.474 21.4243 224.206 21.4243C223.319 21.4243 222.389 21.7202 221.671 22.5232C220.487 23.7911 220.36 25.693 220.36 27.1723ZM251.058 21.0017C250.17 21.0017 249.578 21.2975 249.029 21.8469C248.099 22.819 247.634 24.3828 247.634 26.9187C247.634 29.37 248.057 31.0183 249.071 32.0327C249.663 32.6244 250.297 32.8357 251.058 32.8357C251.945 32.8357 252.537 32.5398 253.086 31.9904C254.016 31.0183 254.481 29.4545 254.481 26.9187C254.481 24.3828 254.016 22.819 253.086 21.8469C252.537 21.2975 251.945 21.0017 251.058 21.0017ZM263.61 26.8764C263.61 30.8915 262.173 33.5964 260.398 35.287C257.524 38.0342 253.636 38.4146 251.058 38.4146C248.395 38.4146 244.549 37.9919 241.717 35.287C240.449 34.0613 238.505 31.441 238.505 26.8764C238.505 22.9881 240.027 20.1986 241.759 18.5503C244.591 15.8031 248.522 15.4228 251.1 15.4228C253.298 15.4228 257.397 15.6341 260.44 18.5503C262.3 20.3254 263.61 22.9881 263.61 26.8764Z" fill="#242A36"/>
</svg>
