<svg width="1920" height="527" viewBox="0 0 1920 527" fill="none" xmlns="http://www.w3.org/2000/svg">
<mask id="mask0_293_26" style="mask-type:alpha" maskUnits="userSpaceOnUse" x="0" y="0" width="1920" height="527">
<rect width="1920" height="527" fill="#D9D9D9"/>
</mask>
<g mask="url(#mask0_293_26)">
<path d="M200.021 159.842C224.393 159.842 242.91 167.28 255.571 182.156C268.231 197.033 274.562 217.607 274.562 243.878C274.562 265.085 270.605 286.133 262.692 307.023C254.779 327.597 243.859 346.272 229.932 363.047C216.006 379.506 199.863 392.8 181.505 402.929C163.463 412.741 144.156 417.647 123.582 417.647C99.5265 417.647 80.5353 410.525 66.6084 396.282C52.6816 381.722 45.7181 360.673 45.7181 333.136C45.7181 311.613 49.8329 290.723 58.0624 270.465C66.2919 249.892 77.5283 231.217 91.7717 214.441C106.332 197.666 122.791 184.372 141.149 174.56C159.823 164.748 179.448 159.842 200.021 159.842ZM191.001 168.388C178.023 168.388 165.363 173.136 153.018 182.631C140.991 191.81 130.071 204.313 120.258 220.139C110.763 235.965 103.166 254.006 97.4691 274.264C92.0882 294.521 89.3978 315.569 89.3978 337.409C89.3978 364.313 93.5126 382.988 101.742 393.433C109.972 403.878 120.258 409.101 132.603 409.101C146.53 409.101 159.349 404.195 171.06 394.383C183.088 384.254 193.533 370.96 202.395 354.501C211.258 337.726 218.221 319.209 223.286 298.952C228.35 278.378 230.882 257.646 230.882 236.756C230.882 211.118 227.242 193.393 219.962 183.581C212.682 173.452 203.028 168.388 191.001 168.388Z" fill="#74C0BF"/>
<path d="M317.496 276.637H488.891L481.769 304.175H310.374L317.496 276.637Z" fill="#74C0BF"/>
<path d="M700.021 159.842C724.394 159.842 742.91 167.28 755.571 182.156C768.231 197.033 774.562 217.607 774.562 243.878C774.562 265.085 770.605 286.133 762.692 307.023C754.779 327.597 743.859 346.272 729.933 363.047C716.006 379.506 699.863 392.8 681.505 402.929C663.464 412.741 644.156 417.647 623.582 417.647C599.527 417.647 580.535 410.525 566.609 396.282C552.682 381.722 545.718 360.673 545.718 333.136C545.718 311.613 549.833 290.723 558.063 270.465C566.292 249.892 577.528 231.217 591.772 214.441C606.332 197.666 622.791 184.372 641.149 174.56C659.824 164.748 679.448 159.842 700.021 159.842ZM691.001 168.388C678.023 168.388 665.363 173.136 653.018 182.631C640.991 191.81 630.071 204.313 620.259 220.139C610.763 235.965 603.167 254.006 597.469 274.264C592.088 294.521 589.398 315.569 589.398 337.409C589.398 364.313 593.513 382.988 601.742 393.433C609.972 403.878 620.259 409.101 632.603 409.101C646.53 409.101 659.349 404.195 671.06 394.383C683.088 384.254 693.533 370.96 702.395 354.501C711.258 337.726 718.221 319.209 723.286 298.952C728.35 278.378 730.882 257.646 730.882 236.756C730.882 211.118 727.242 193.393 719.962 183.581C712.682 173.452 703.028 168.388 691.001 168.388Z" fill="#74C0BF"/>
<path d="M817.496 276.637H988.891L981.77 304.175H810.374L817.496 276.637Z" fill="#74C0BF"/>
<path d="M1179.23 159.842C1203.61 159.842 1222.12 167.28 1234.78 182.156C1247.44 197.033 1253.77 217.607 1253.77 243.878C1253.77 265.085 1249.82 286.133 1241.9 307.023C1233.99 327.597 1223.07 346.272 1209.14 363.047C1195.22 379.506 1179.07 392.8 1160.72 402.929C1142.68 412.741 1123.37 417.647 1102.79 417.647C1078.74 417.647 1059.75 410.525 1045.82 396.282C1031.89 381.722 1024.93 360.673 1024.93 333.136C1024.93 311.613 1029.04 290.723 1037.27 270.465C1045.5 249.892 1056.74 231.217 1070.98 214.441C1085.54 197.666 1102 184.372 1120.36 174.56C1139.04 164.748 1158.66 159.842 1179.23 159.842ZM1170.21 168.388C1157.24 168.388 1144.57 173.136 1132.23 182.631C1120.2 191.81 1109.28 204.313 1099.47 220.139C1089.97 235.965 1082.38 254.006 1076.68 274.264C1071.3 294.521 1068.61 315.569 1068.61 337.409C1068.61 364.313 1072.72 382.988 1080.95 393.433C1089.18 403.878 1099.47 409.101 1111.81 409.101C1125.74 409.101 1138.56 404.195 1150.27 394.383C1162.3 384.254 1172.74 370.96 1181.61 354.501C1190.47 337.726 1197.43 319.209 1202.5 298.952C1207.56 278.378 1210.09 257.646 1210.09 236.756C1210.09 211.118 1206.45 193.393 1199.17 183.581C1191.89 173.452 1182.24 168.388 1170.21 168.388Z" fill="#74C0BF"/>
<path d="M1296.71 276.637H1468.1L1460.98 304.175H1289.59L1296.71 276.637Z" fill="#74C0BF"/>
<path d="M1658.44 159.842C1682.82 159.842 1701.33 167.28 1713.99 182.156C1726.65 197.033 1732.99 217.607 1732.99 243.878C1732.99 265.085 1729.03 286.133 1721.12 307.023C1713.2 327.597 1702.28 346.272 1688.36 363.047C1674.43 379.506 1658.29 392.8 1639.93 402.929C1621.89 412.741 1602.58 417.647 1582.01 417.647C1557.95 417.647 1538.96 410.525 1525.03 396.282C1511.11 381.722 1504.14 360.673 1504.14 333.136C1504.14 311.613 1508.26 290.723 1516.49 270.465C1524.72 249.892 1535.95 231.217 1550.2 214.441C1564.76 197.666 1581.21 184.372 1599.57 174.56C1618.25 164.748 1637.87 159.842 1658.44 159.842ZM1649.42 168.388C1636.45 168.388 1623.79 173.136 1611.44 182.631C1599.41 191.81 1588.49 204.313 1578.68 220.139C1569.19 235.965 1561.59 254.006 1555.89 274.264C1550.51 294.521 1547.82 315.569 1547.82 337.409C1547.82 364.313 1551.94 382.988 1560.17 393.433C1568.4 403.878 1578.68 409.101 1591.03 409.101C1604.95 409.101 1617.77 404.195 1629.48 394.383C1641.51 384.254 1651.96 370.96 1660.82 354.501C1669.68 337.726 1676.64 319.209 1681.71 298.952C1686.77 278.378 1689.31 257.646 1689.31 236.756C1689.31 211.118 1685.67 193.393 1678.39 183.581C1671.11 173.452 1661.45 168.388 1649.42 168.388Z" fill="#74C0BF"/>
<path d="M1788.26 316.519C1797.13 282.968 1804.41 249.892 1810.1 217.29C1815.8 184.689 1820.87 154.619 1825.3 127.082C1829.73 99.2283 1834.32 76.2807 1839.07 58.2391C1840.01 55.3904 1841.12 52.8582 1842.39 50.6426C1843.65 48.1104 1845.24 46.0531 1847.14 44.4705C1849.04 42.8879 1851.09 41.7801 1853.31 41.147C1855.52 40.1974 1857.9 39.7227 1860.43 39.7227C1870.24 39.7227 1876.57 42.7296 1879.42 48.7435C1882.59 54.7574 1882.9 61.5625 1880.37 69.159C1876.89 81.8198 1871.82 97.171 1865.18 115.213C1858.53 132.938 1851.09 152.72 1842.86 174.56C1834.95 196.4 1826.88 219.506 1818.65 243.878C1810.74 267.933 1803.46 292.622 1796.81 317.943L1788.26 316.519ZM1746.96 393.433C1746.96 383.938 1750.6 375.55 1757.88 368.27C1765.16 360.673 1773.23 356.875 1782.09 356.875C1789.37 356.875 1795.23 359.249 1799.66 363.997C1804.09 368.745 1806.31 374.6 1806.31 381.564C1806.31 387.894 1804.56 393.908 1801.08 399.605C1797.92 404.986 1793.64 409.259 1788.26 412.424C1782.88 415.906 1777.03 417.647 1770.7 417.647C1763.73 417.647 1758.04 415.431 1753.6 411C1749.17 406.252 1746.96 400.397 1746.96 393.433Z" fill="#74C0BF"/>
<path fill-rule="evenodd" clip-rule="evenodd" d="M1985.31 125.553C1993.9 114.744 1992.1 99.0172 1981.29 90.4273C1970.48 81.8374 1954.76 83.6369 1946.17 94.4466C1937.68 105.124 1930.92 113.043 1921.73 120.81L1920.92 121.489L1920.18 122.234C1878.02 164.386 1821.45 210.602 1760.71 249.308C1751.06 255.461 1741.33 261.4 1731.58 267.085C1730.94 271.635 1729.95 276.345 1728.5 281C1723.22 297.974 1712.19 324.286 1706.47 337.293C1734.01 323.81 1761.3 308.223 1787.58 291.474C1851.02 251.044 1910.15 202.852 1954.81 158.311C1967.47 147.488 1976.51 136.637 1985.31 125.553ZM1658.82 358.304C1659.48 356.905 1660.4 355.047 1661.48 352.87C1665.02 345.722 1670.26 335.129 1673.5 326C1676.39 317.851 1678.94 308.465 1680.91 301.189C1681.79 297.95 1682.55 295.129 1683.19 293.022C1647.55 310.375 1612.42 323.455 1579.73 330.337C1543.11 338.046 1506.66 332.437 1468.74 318.99C1432.73 306.219 1397.13 287.067 1359.73 266.952C1358.16 266.108 1356.59 265.262 1355.01 264.415L1352.38 263.002C1320.28 245.758 1286.21 227.581 1250.65 214.719C1252.73 223.501 1253.77 233.221 1253.77 243.878C1253.77 252.28 1253.15 260.657 1251.91 269.01C1276.37 279.343 1301.8 292.587 1328.72 307.049C1331.43 308.5 1334.14 309.962 1336.87 311.43C1373.41 331.102 1412.25 352.007 1452.03 366.114C1495.22 381.431 1541.44 389.493 1590.03 379.265C1612.53 374.528 1635.61 367.354 1658.82 358.304ZM1111.05 203.649C1143.74 194.973 1175.79 195.747 1206.91 202.157C1209.03 211.385 1210.09 222.918 1210.09 236.756C1210.09 242.553 1209.9 248.337 1209.51 254.109C1176.05 245.132 1143.91 244.08 1111.58 255.839C1099.84 260.107 1088.42 265.964 1077.04 273.011C1082.69 253.262 1090.17 235.638 1099.47 220.139C1103.17 214.17 1107.03 208.673 1111.05 203.649ZM1037.27 270.465C1031.98 283.507 1028.38 296.811 1026.5 310.378C1023 313.237 1019.47 316.157 1015.89 319.108L1015.88 319.115L1015.86 319.132L1015.86 319.137C996.529 335.089 976.076 351.971 955.471 365.264C927.149 383.535 894.767 397.736 857.378 395.94C820.873 394.187 783.788 377.412 744.541 343.047C751.744 331.767 757.794 319.759 762.693 307.023C764.136 303.212 765.448 299.396 766.628 295.574C769.249 298.017 771.88 300.43 774.529 302.811C809.582 334.32 837.276 344.917 859.777 345.998C882.459 347.087 904.34 338.748 928.366 323.248C937.329 317.466 946.076 311.056 954.904 304.175H981.77L988.891 276.638H988.774C993.672 272.608 998.691 268.505 1003.87 264.35C1022.35 249.531 1042.44 234.473 1064.49 222.493C1053.28 237.135 1044.21 253.126 1037.27 270.465ZM723.286 298.952C721.65 305.498 719.815 311.861 717.782 318.043C710.538 310.974 703.415 303.844 696.42 296.843C693.481 293.901 690.565 290.982 687.671 288.1C670.345 270.837 653.579 254.605 636.019 240.468C601.237 212.465 564.873 193.923 519.087 193.923C504.722 193.923 490.351 199.192 475.109 208.554C460.445 217.56 446.768 229.175 432.504 241.288L432.416 241.364L432.285 241.475C431.565 242.086 430.845 242.698 430.122 243.311C342.029 318.057 219.015 344.506 89.6152 347.685C89.4703 344.405 89.3978 340.98 89.3978 337.409C89.3978 323.824 90.4387 310.546 92.5206 297.573C214.051 294.094 322.522 269.035 397.773 205.185C398.761 204.348 399.764 203.495 400.783 202.628C414.426 191.028 430.862 177.052 448.94 165.949C468.604 153.871 492.134 143.923 519.087 143.923C580.322 143.923 627.473 169.397 667.375 201.522C687.158 217.449 705.526 235.309 722.961 252.678C725.282 254.991 727.584 257.292 729.869 259.578C728.695 272.767 726.501 285.891 723.286 298.952ZM46.4503 347.92C45.9622 343.219 45.7181 338.292 45.7181 333.136C45.7181 321.209 46.9818 309.476 49.5089 297.938C16.7133 297.59 -16.8278 295.88 -50.744 293.123C-138.516 285.989 -226.861 272.052 -308.356 257.961C-328.522 254.474 -348.333 250.965 -367.633 247.547L-367.633 247.547C-425.787 237.246 -479.301 227.768 -523.899 222.193C-537.6 220.481 -550.094 230.199 -551.807 243.899C-553.52 257.6 -543.801 270.094 -530.101 271.807C-486.881 277.21 -435.221 286.358 -377.491 296.582C-357.951 300.043 -337.715 303.627 -316.875 307.23C-235.034 321.381 -144.887 335.636 -54.7945 342.959C-21.1588 345.692 12.7534 347.49 46.4503 347.92Z" fill="#EDEDED"/>
</g>
</svg>
