<svg width="41" height="42" viewBox="0 0 41 42" fill="none" xmlns="http://www.w3.org/2000/svg">
<rect width="41" height="42" rx="10" fill="white"/>
<path d="M34.9501 20.3105C34.9527 20.3105 34.9547 20.3105 34.9574 20.3105C35.1415 20.3105 35.3171 20.2309 35.4418 20.0915C35.5685 19.9501 35.6312 19.7603 35.6147 19.5686C34.9521 12.0593 29.1817 6.11205 21.8927 5.42797C21.7079 5.41301 21.5217 5.47489 21.3845 5.60613C21.2472 5.73669 21.1706 5.92097 21.1726 6.11341C21.2874 16.0931 22.5652 20.1711 34.9501 20.3105ZM34.9501 21.6895C22.5652 21.8289 21.2881 25.9069 21.1733 35.8865C21.1713 36.079 21.2478 36.2633 21.3851 36.3938C21.5079 36.5101 21.6683 36.5747 21.8333 36.5747C21.8531 36.5747 21.8735 36.574 21.8933 36.572C29.1824 35.8879 34.9527 29.9413 35.6147 22.4314C35.6312 22.2396 35.5692 22.0499 35.4418 21.9085C35.3144 21.767 35.1369 21.697 34.9501 21.6895ZM19.0632 5.43137C11.7973 6.13517 6.04541 12.0811 5.38607 19.5699C5.36957 19.7617 5.43161 19.9514 5.55899 20.0929C5.68373 20.2323 5.85995 20.3111 6.04343 20.3111C6.04607 20.3111 6.04871 20.3111 6.05135 20.3111C18.3953 20.1649 19.6698 16.089 19.7859 6.11613C19.7879 5.92369 19.7107 5.73873 19.5734 5.60817C19.4348 5.47761 19.2494 5.41369 19.0632 5.43137ZM6.05069 21.6888C5.84543 21.665 5.68439 21.7657 5.55833 21.9071C5.43161 22.0485 5.36891 22.2383 5.38541 22.43C6.04475 29.9189 11.7973 35.8648 19.0632 36.5686C19.0837 36.5706 19.1048 36.5713 19.1253 36.5713C19.2903 36.5713 19.45 36.5074 19.5728 36.3911C19.71 36.2605 19.7873 36.0756 19.7853 35.8831C19.6691 25.9109 18.3953 21.835 6.05069 21.6888Z" fill="#E94E1B"/>
</svg>
