<svg width="557" height="315" viewBox="0 0 557 315" fill="none" xmlns="http://www.w3.org/2000/svg">
<path fill-rule="evenodd" clip-rule="evenodd" d="M0.132555 298.677L556.337 298.677L556.337 289.931C536.137 278.328 522.507 256.349 522.507 231.146C522.507 205.942 536.137 183.964 556.337 172.361L556.337 126.491C536.137 114.888 522.507 92.9097 522.507 67.7064C522.507 42.503 536.137 20.5243 556.337 8.9214L556.337 0.177026L0.132568 0.177032L0.132555 298.677Z" fill="#29303E"/>
<mask id="path-2-inside-1_550_2" fill="white">
<path fill-rule="evenodd" clip-rule="evenodd" d="M0.132555 298.677L529.08 314.018L533.103 267.692C526.398 257.158 522.507 244.612 522.507 231.146C522.507 213.428 529.243 197.304 540.263 185.258L546.002 119.168C531.627 106.781 522.507 88.323 522.507 67.7071C522.507 42.8381 535.778 21.1089 555.537 9.38947L556.337 0.177026L0.132568 0.177032L0.132555 298.677Z"/>
</mask>
<path d="M529.08 314.018L534.061 314.451L533.653 319.153L528.935 319.016L529.08 314.018ZM0.132555 298.677L-0.0124014 303.675L-4.86744 303.534L-4.86744 298.677L0.132555 298.677ZM533.103 267.692L537.321 265.007L538.231 266.437L538.084 268.125L533.103 267.692ZM540.263 185.258L545.244 185.691L545.097 187.381L543.952 188.633L540.263 185.258ZM546.002 119.168L549.266 115.38L551.205 117.051L550.984 119.601L546.002 119.168ZM555.537 9.38947L560.518 9.82209L560.296 12.3801L558.088 13.6899L555.537 9.38947ZM556.337 0.177026L556.337 -4.82297L561.79 -4.82297L561.318 0.609653L556.337 0.177026ZM0.132568 0.177032L-4.86743 0.177032L-4.86743 -4.82297L0.132568 -4.82297L0.132568 0.177032ZM528.935 319.016L-0.0124014 303.675L0.277512 293.679L529.225 309.02L528.935 319.016ZM538.084 268.125L534.061 314.451L524.098 313.585L528.122 267.259L538.084 268.125ZM527.507 231.146C527.507 243.637 531.114 255.254 537.321 265.007L528.885 270.377C521.683 259.061 517.507 245.588 517.507 231.146L527.507 231.146ZM543.952 188.633C533.748 199.787 527.507 214.718 527.507 231.146L517.507 231.146C517.507 212.139 524.738 194.821 536.573 181.883L543.952 188.633ZM550.984 119.601L545.244 185.691L535.281 184.825L541.021 118.735L550.984 119.601ZM527.507 67.7071C527.507 86.8194 535.956 103.911 549.266 115.38L542.739 122.956C527.298 109.651 517.507 89.8267 517.507 67.7071L527.507 67.7071ZM558.088 13.6899C539.803 24.535 527.507 44.6544 527.507 67.7071L517.507 67.7071C517.507 41.0219 531.753 17.6827 552.986 5.089L558.088 13.6899ZM561.318 0.609653L560.518 9.82209L550.556 8.95684L551.356 -0.2556L561.318 0.609653ZM0.132568 -4.82297L556.337 -4.82297L556.337 5.17703L0.132568 5.17703L0.132568 -4.82297ZM-4.86744 298.677L-4.86743 0.177032L5.13257 0.177033L5.13256 298.677L-4.86744 298.677Z" fill="#F5F5F5" mask="url(#path-2-inside-1_550_2)"/>
<path opacity="0.1" d="M30.2114 12.3892L18.5403 12.3892L18.5403 31.9542L30.2114 31.9542L30.2114 12.3892Z" fill="#F5F5F5"/>
<path opacity="0.1" d="M30.2121 252.698L18.541 252.698L18.541 272.263L30.2121 272.263L30.2121 252.698Z" fill="#F5F5F5"/>
<path opacity="0.1" d="M64.5384 12.3896L52.8673 12.3896L52.8673 31.9547L64.5384 31.9547L64.5384 12.3896Z" fill="#F5F5F5"/>
<path opacity="0.1" d="M64.5388 252.698L52.8677 252.698L52.8677 272.263L64.5388 272.263L64.5388 252.698Z" fill="#F5F5F5"/>
<path opacity="0.1" d="M97.8708 12.39L86.1997 12.39L86.1997 31.955L97.8708 31.955L97.8708 12.39Z" fill="#F5F5F5"/>
<path opacity="0.1" d="M97.8711 252.698L86.2 252.698L86.2 272.263L97.8711 272.263L97.8711 252.698Z" fill="#F5F5F5"/>
<path opacity="0.1" d="M131.203 12.3895L119.531 12.3895L119.531 31.9546L131.203 31.9546L131.203 12.3895Z" fill="#F5F5F5"/>
<path opacity="0.1" d="M131.203 252.698L119.532 252.698L119.532 272.264L131.203 272.264L131.203 252.698Z" fill="#F5F5F5"/>
<path opacity="0.1" d="M165.035 12.3901L153.363 12.3901L153.363 31.9552L165.035 31.9552L165.035 12.3901Z" fill="#F5F5F5"/>
<path opacity="0.1" d="M165.033 252.698L153.362 252.698L153.362 272.264L165.033 272.264L165.033 252.698Z" fill="#F5F5F5"/>
<path opacity="0.1" d="M198.364 12.3898L186.693 12.3898L186.693 31.9548L198.364 31.9548L198.364 12.3898Z" fill="#F5F5F5"/>
<path opacity="0.1" d="M198.365 252.698L186.693 252.698L186.693 272.263L198.365 272.263L198.365 252.698Z" fill="#F5F5F5"/>
<path opacity="0.1" d="M231.698 12.3892L220.027 12.3892L220.027 31.9542L231.698 31.9542L231.698 12.3892Z" fill="#F5F5F5"/>
<path opacity="0.1" d="M231.698 252.697L220.027 252.697L220.027 272.262L231.698 272.262L231.698 252.697Z" fill="#F5F5F5"/>
<path opacity="0.1" d="M265.03 12.3895L253.359 12.3895L253.359 31.9546L265.03 31.9546L265.03 12.3895Z" fill="#F5F5F5"/>
<path opacity="0.1" d="M265.031 252.698L253.36 252.698L253.36 272.263L265.031 272.263L265.031 252.698Z" fill="#F5F5F5"/>
<path opacity="0.1" d="M298.86 12.3903L287.189 12.3903L287.189 31.9553L298.86 31.9553L298.86 12.3903Z" fill="#F5F5F5"/>
<path opacity="0.1" d="M298.86 252.698L287.189 252.698L287.189 272.263L298.86 272.263L298.86 252.698Z" fill="#F5F5F5"/>
<path opacity="0.1" d="M332.193 12.3906L320.522 12.3906L320.522 31.9557L332.193 31.9557L332.193 12.3906Z" fill="#F5F5F5"/>
<path opacity="0.1" d="M332.193 252.699L320.522 252.699L320.522 272.264L332.193 272.264L332.193 252.699Z" fill="#F5F5F5"/>
<path opacity="0.1" d="M365.525 12.3909L353.854 12.3909L353.854 31.9559L365.525 31.9559L365.525 12.3909Z" fill="#F5F5F5"/>
<path opacity="0.1" d="M365.525 252.699L353.854 252.699L353.854 272.264L365.525 272.264L365.525 252.699Z" fill="#F5F5F5"/>
<path opacity="0.1" d="M398.858 12.3895L387.187 12.3895L387.187 31.9546L398.858 31.9546L398.858 12.3895Z" fill="#F5F5F5"/>
<path opacity="0.1" d="M398.858 252.697L387.187 252.697L387.187 272.262L398.858 272.262L398.858 252.697Z" fill="#F5F5F5"/>
<path opacity="0.1" d="M432.686 12.3904L421.015 12.3904L421.015 31.9554L432.686 31.9554L432.686 12.3904Z" fill="#F5F5F5"/>
<path opacity="0.1" d="M432.689 252.698L421.017 252.698L421.017 272.264L432.689 272.264L432.689 252.698Z" fill="#F5F5F5"/>
<path opacity="0.1" d="M466.02 12.3898L454.349 12.3898L454.349 31.9548L466.02 31.9548L466.02 12.3898Z" fill="#F5F5F5"/>
<path opacity="0.1" d="M466.02 252.698L454.349 252.698L454.349 272.263L466.02 272.263L466.02 252.698Z" fill="#F5F5F5"/>
<path opacity="0.1" d="M499.352 12.3901L487.681 12.3901L487.681 31.9552L499.352 31.9552L499.352 12.3901Z" fill="#F5F5F5"/>
<path opacity="0.1" d="M499.353 252.698L487.682 252.698L487.682 272.263L499.353 272.263L499.353 252.698Z" fill="#F5F5F5"/>
</svg>
