<svg width="222" height="45" viewBox="0 0 222 45" fill="none" xmlns="http://www.w3.org/2000/svg">
<path d="M10.1175 35.4347C7.53542 35.4347 5.50665 34.7102 4.03119 33.2611C2.55572 31.7856 1.81799 29.8227 1.81799 27.3724C1.81799 25.5807 2.10781 23.8945 2.68746 22.3136C3.2671 20.7064 4.07071 19.3232 5.09826 18.1639C6.12582 17.0046 7.36416 16.0824 8.81328 15.3974C10.2624 14.7123 11.8564 14.3698 13.5954 14.3698C16.3355 14.3698 18.4302 15.1075 19.8793 16.583C21.3547 18.0585 22.0925 20.0214 22.0925 22.4717C22.0925 23.9472 21.829 25.4622 21.302 27.0167C20.7751 28.5448 19.9978 29.9281 18.9703 31.1664C17.9691 32.4048 16.7176 33.4323 15.2157 34.2491C13.7403 35.0395 12.0409 35.4347 10.1175 35.4347ZM10.6313 31.6802C11.7115 31.6802 12.6864 31.4036 13.5558 30.8503C14.4253 30.2706 15.1499 29.546 15.7295 28.6766C16.3355 27.8071 16.7966 26.8322 17.1128 25.752C17.4553 24.6717 17.6266 23.631 17.6266 22.6298C17.6266 21.2597 17.2577 20.1795 16.52 19.389C15.8086 18.5723 14.7283 18.1639 13.2792 18.1639C12.1989 18.1639 11.2241 18.4273 10.3546 18.9543C9.48514 19.4549 8.74741 20.1268 8.14141 20.9699C7.56177 21.813 7.11386 22.7879 6.79769 23.8945C6.48151 24.9747 6.32343 26.0813 6.32343 27.2143C6.32343 28.5053 6.71864 29.5724 7.50907 30.4155C8.2995 31.2586 9.34023 31.6802 10.6313 31.6802ZM28.4585 27.4909H25.9291C26.3244 25.831 26.6932 24.1184 27.0357 22.3531C27.3783 20.5615 27.6417 18.9148 27.8262 17.413C28.0106 16.0429 28.1555 14.7387 28.2609 13.5003C28.3926 12.262 28.5507 11.2344 28.7352 10.4177C28.9196 9.36377 29.2885 8.62603 29.8418 8.20447C30.3951 7.78291 31.0933 7.57213 31.9364 7.57213C32.9113 7.57213 33.6226 7.80926 34.0706 8.28352C34.5448 8.73143 34.6897 9.36377 34.5053 10.1805C34.3736 10.9973 34.031 11.9985 33.4777 13.1842C32.9508 14.3698 32.3975 15.6477 31.8178 17.0178C31.2645 18.4669 30.6849 20.1136 30.0789 21.9579C29.4729 23.8023 28.9328 25.6466 28.4585 27.4909ZM25.613 35.3557C24.9279 35.3557 24.3878 35.1713 23.9926 34.8024C23.5974 34.4072 23.3998 33.8934 23.3998 33.2611C23.3998 32.2598 23.7159 31.4431 24.3483 30.8107C25.007 30.1784 25.8106 29.8622 26.7591 29.8622C27.4705 29.8622 28.0106 30.0598 28.3795 30.455C28.7747 30.8239 28.9723 31.3113 28.9723 31.9173C28.9723 32.9449 28.6429 33.7748 27.9843 34.4072C27.3519 35.0395 26.5615 35.3557 25.613 35.3557Z" fill="white"/>
<path d="M48.7386 35.5901L42.868 21.2948H42.7918L42.868 22.3241V35.5901H38.2935V16.2247H44.5453L50.3778 30.7106L56.2103 16.2247H62.4621V35.5901H57.8876V22.3241L57.9638 21.2948H57.8876L52.017 35.5901H48.7386ZM65.7145 25.9074C65.7145 22.1716 67.4681 15.4623 75.7022 15.4623C83.9363 15.4623 85.6898 22.1716 85.6898 25.9074C85.6898 29.6433 83.9363 36.3525 75.7022 36.3525C67.4681 36.3525 65.7145 29.6433 65.7145 25.9074ZM70.594 25.9074C70.594 32.5404 74.063 33.2266 75.7022 33.2266C77.3414 33.2266 80.8104 32.5404 80.8104 25.9074C80.8104 19.2744 77.3414 18.5882 75.7022 18.5882C74.063 18.5882 70.594 19.2744 70.594 25.9074ZM102.362 28.4996H106.708C106.403 31.3206 104.649 36.3525 97.5588 36.3525C90.9639 36.3525 87.838 32.083 87.838 25.9455C87.838 16.0341 94.8903 15.4623 97.4063 15.4623C103.353 15.4623 106.212 18.9313 106.632 22.6672H102.286C102.057 20.6468 100.685 18.5882 97.6731 18.5882C93.8992 18.5882 92.7174 21.981 92.7174 25.9455C92.7174 32.0067 95.7671 33.2266 97.94 33.2266C101.333 33.2266 102.286 30.2913 102.362 28.4996ZM120.135 35.5901L114.264 21.2948H114.188L114.264 22.3241V35.5901H109.69V16.2247H115.941L121.774 30.7106L127.606 16.2247H133.858V35.5901H129.284V22.3241L129.36 21.2948H129.284L123.413 35.5901H120.135ZM151.825 29.9863H156.171C155.713 32.5023 153.846 36.3525 146.946 36.3525C145.002 36.3525 137.111 36.0094 137.111 26.2505C137.111 19.7319 140.313 15.4623 146.984 15.4623C155.37 15.4623 156.247 22.1716 156.438 25.9837C156.438 26.3649 156.476 26.708 156.476 27.0892H141.99C141.952 29.567 143.286 33.2266 147.327 33.2266C149.385 33.2266 151.52 32.1211 151.825 29.9863ZM141.99 23.9633H151.635C151.596 22.2097 151.025 18.5882 147.022 18.5882C143.439 18.5882 141.914 21.4473 141.99 23.9633ZM164.09 19.3507H157.457V16.2247H175.298V19.3507H168.665V35.5901H164.09V19.3507ZM177.4 16.2247H181.593V18.1308H181.67C183.385 16.0341 185.939 15.4623 187.921 15.4623C192.381 15.4623 197.261 18.2833 197.261 25.7931C197.261 29.872 195.66 36.3525 188.074 36.3525C187.54 36.3525 183.499 36.3525 181.974 33.6078V42.6424H177.4V16.2247ZM181.631 25.9455C181.631 30.2913 183.461 33.2266 186.778 33.2266C188.836 33.2266 192.381 32.2355 192.381 26.0599C192.381 20.5705 189.751 18.5882 186.968 18.5882C184.948 18.5882 181.631 19.6556 181.631 25.9455ZM199.386 25.9074C199.386 22.1716 201.139 15.4623 209.373 15.4623C217.608 15.4623 219.361 22.1716 219.361 25.9074C219.361 29.6433 217.608 36.3525 209.373 36.3525C201.139 36.3525 199.386 29.6433 199.386 25.9074ZM204.265 25.9074C204.265 32.5404 207.734 33.2266 209.373 33.2266C211.013 33.2266 214.482 32.5404 214.482 25.9074C214.482 19.2744 211.013 18.5882 209.373 18.5882C207.734 18.5882 204.265 19.2744 204.265 25.9074Z" fill="white"/>
</svg>
