<svg width="30" height="29" viewBox="0 0 30 29" fill="none" xmlns="http://www.w3.org/2000/svg">
<path fill-rule="evenodd" clip-rule="evenodd" d="M12.1176 2.79419C6.52982 2.79419 2 7.32401 2 12.9118C2 18.4997 6.52982 23.0295 12.1176 23.0295C14.9116 23.0295 17.441 21.897 19.2719 20.0661L19.2646 20.0588L19.5878 19.7357C21.2322 17.9366 22.2353 15.5413 22.2353 12.9118C22.2353 7.32401 17.7055 2.79419 12.1176 2.79419ZM21.9835 19.9493C23.4011 17.9654 24.2353 15.536 24.2353 12.9118C24.2353 6.21944 18.81 0.794189 12.1176 0.794189C5.42526 0.794189 0 6.21944 0 12.9118C0 19.6042 5.42526 25.0295 12.1176 25.0295C15.4638 25.0295 18.4933 23.6732 20.6861 21.4803L28 28.7942L29.4142 27.38L21.9835 19.9493Z" fill="white"/>
</svg>
