<svg width="235" height="50" viewBox="0 0 235 50" fill="none" xmlns="http://www.w3.org/2000/svg">
<path d="M10.8229 39.4382C8.10619 39.4382 5.94454 38.6203 4.33791 36.9844C2.73128 35.3486 1.92796 33.2599 1.92796 30.7185C1.92796 28.7906 2.24929 26.9649 2.89194 25.2414C3.53459 23.4887 4.41094 21.9843 5.52098 20.7282C6.63101 19.4429 7.96014 18.4351 9.50835 17.7048C11.0858 16.9453 12.78 16.5656 14.5911 16.5656C17.4831 16.5656 19.7178 17.3689 21.2952 18.9755C22.8726 20.5821 23.6613 22.6708 23.6613 25.2414C23.6613 26.8188 23.3692 28.4546 22.785 30.1489C22.2007 31.8432 21.3536 33.3768 20.2436 34.7497C19.1628 36.1227 17.819 37.2473 16.2124 38.1237C14.635 39 12.8385 39.4382 10.8229 39.4382ZM11.1734 36.5462C12.5171 36.5462 13.744 36.1957 14.8541 35.4946C15.9641 34.7935 16.9135 33.9172 17.7022 32.8656C18.4909 31.7848 19.1043 30.5725 19.5425 29.2287C19.9807 27.885 20.1998 26.5851 20.1998 25.329C20.1998 23.5179 19.7032 22.0865 18.71 21.0349C17.746 19.9833 16.3438 19.4575 14.5035 19.4575C13.0722 19.4575 11.7868 19.7788 10.6476 20.4215C9.50835 21.0641 8.54437 21.9113 7.75566 22.9629C6.99616 23.9853 6.39732 25.183 5.95915 26.5559C5.55019 27.8996 5.34571 29.2726 5.34571 30.6747C5.34571 32.3982 5.87151 33.815 6.92313 34.925C8.00395 36.0058 9.42071 36.5462 11.1734 36.5462ZM30.2069 31.4634H28.3665C28.9216 29.0681 29.4328 26.6289 29.9001 24.1459C30.3675 21.6338 30.7473 19.3699 31.0394 17.3543C31.2147 16.069 31.3899 14.8713 31.5652 13.7613C31.7405 12.622 31.9303 11.6872 32.1348 10.9569C32.3393 10.1098 32.646 9.52559 33.055 9.20426C33.4932 8.88293 34.0482 8.72227 34.72 8.72227C35.4211 8.72227 35.9323 8.89754 36.2537 9.24808C36.575 9.5694 36.7064 10.0222 36.648 10.6064C36.6188 11.2783 36.3997 12.1254 35.9907 13.1478C35.611 14.1702 35.1874 15.3241 34.72 16.6094C34.0774 18.5081 33.3325 20.772 32.4854 23.4011C31.6382 26.0301 30.8787 28.7175 30.2069 31.4634ZM27.8846 39.4382C27.2419 39.4382 26.7307 39.2629 26.3509 38.9124C25.9712 38.5326 25.7813 38.0506 25.7813 37.4664C25.7813 36.6193 26.0588 35.9036 26.6139 35.3193C27.1981 34.7059 27.8992 34.3992 28.7171 34.3992C29.3889 34.3992 29.9148 34.5891 30.2945 34.9688C30.6743 35.3193 30.8641 35.7867 30.8641 36.371C30.8641 37.2181 30.572 37.9484 29.9878 38.5618C29.4036 39.1461 28.7025 39.4382 27.8846 39.4382Z" fill="#242A36"/>
<path d="M53.4453 38.6538L46.1759 21.41H46.0913L46.1759 22.5511V38.6538H42.4566V17.1835H47.5706L54.8823 34.6387L62.1941 17.1835H67.308V38.6538H63.5888V22.5511L63.7156 21.41H63.5888L56.3193 38.6538H53.4453ZM70.9183 27.9187C70.9183 22.213 73.6655 16.3382 81.4844 16.3382C89.3033 16.3382 92.0505 22.213 92.0505 27.9187C92.0505 33.6244 89.3033 39.4991 81.4844 39.4991C73.6655 39.4991 70.9183 33.6244 70.9183 27.9187ZM74.8489 27.8764C74.8489 36.4983 79.8361 36.8787 81.4844 36.8787C83.1327 36.8787 88.1199 36.4983 88.1199 27.8764C88.1199 19.2545 83.1327 18.8741 81.4844 18.8741C79.8361 18.8741 74.8489 19.2545 74.8489 27.8764ZM110.686 31.004H114.237C114.025 33.5398 112.546 39.4991 104.896 39.4991C102.741 39.4991 94.4147 39.2032 94.4147 27.7496C94.4147 22.7624 96.3166 16.3382 104.643 16.3382C110.686 16.3382 113.603 19.8884 114.068 23.9036H110.517C109.714 19.1277 106.037 18.9586 104.727 18.9586C100.078 18.9586 98.3452 22.8892 98.3452 27.7496C98.3452 32.61 100.247 36.8787 104.981 36.8787C109.207 36.8787 110.56 33.3708 110.686 31.004ZM128.516 38.6538L121.246 21.41H121.162L121.246 22.5511V38.6538H117.527V17.1835H122.641L129.953 34.6387L137.264 17.1835H142.378V38.6538H138.659V22.5511L138.786 21.41H138.659L131.39 38.6538H128.516ZM162.683 32.441H166.233C165.684 35.484 163.444 39.4991 156.851 39.4991C146.2 39.4991 145.989 29.9474 145.989 28.0032C145.989 25.0447 146.538 16.3382 156.47 16.3382C165.05 16.3382 166.191 23.0583 166.402 27.7073C166.402 28.0455 166.445 28.4258 166.445 28.764H149.919C149.919 32.441 151.821 36.8787 156.724 36.8787C160.316 36.8787 162.218 34.8078 162.683 32.441ZM149.919 26.1436H162.514C162.387 23.2696 161.415 18.9586 156.555 18.9586C151.06 18.9586 149.919 23.4386 149.919 26.1436ZM174.995 19.8039H167.557V17.1835H186.153V19.8039H178.715V38.6538H174.995V19.8039ZM188.47 17.1835H191.936V20.142H192.062C194.218 16.8877 197.303 16.3382 199.163 16.3382C204.446 16.3382 208.841 19.8884 208.841 27.9187C208.841 36.2447 204.15 39.4991 199.247 39.4991C198.402 39.4991 194.091 39.2878 192.189 35.5685V46.4727H188.47V17.1835ZM191.936 28.0032C191.936 34.6387 195.739 36.8787 198.571 36.8787C201.572 36.8787 204.911 34.7655 204.911 27.9187C204.911 22.382 202.586 18.9586 198.36 18.9586C196.458 18.9586 191.936 19.8884 191.936 28.0032ZM211.195 27.9187C211.195 22.213 213.942 16.3382 221.761 16.3382C229.58 16.3382 232.327 22.213 232.327 27.9187C232.327 33.6244 229.58 39.4991 221.761 39.4991C213.942 39.4991 211.195 33.6244 211.195 27.9187ZM215.125 27.8764C215.125 36.4983 220.112 36.8787 221.761 36.8787C223.409 36.8787 228.396 36.4983 228.396 27.8764C228.396 19.2545 223.409 18.8741 221.761 18.8741C220.112 18.8741 215.125 19.2545 215.125 27.8764Z" fill="#242A36"/>
</svg>
