<svg width="153" height="40" viewBox="0 0 153 40" fill="none" xmlns="http://www.w3.org/2000/svg">
<path d="M7.668 21.2233V32.5273H3.06V7.32734H7.668V17.4073H18.9V7.32734H23.508V32.5273H18.9V21.2233H7.668ZM27.1181 24.4273H31.6901C31.7981 26.3353 32.9501 29.4673 38.2421 29.4673C39.9341 29.4673 43.5701 29.2153 43.5701 25.6873C43.5701 22.6633 40.6541 22.1233 39.0341 21.7993C38.0261 21.6193 37.0541 21.4033 36.0821 21.1873C31.9781 20.2513 28.2701 19.0273 28.2701 13.9153C28.2701 6.78735 36.1181 6.57135 38.1701 6.57135C44.8301 6.57135 47.6021 10.1353 47.9261 13.9873H43.3541C42.9221 10.4593 39.3941 10.3873 38.0621 10.3873C37.3781 10.3873 33.2021 10.3873 33.2021 13.7353C33.2021 16.3633 36.0461 16.7953 38.8181 17.2993C44.6501 18.3433 48.5021 19.6393 48.5021 25.2193C48.5021 32.3473 42.2021 33.2833 37.9541 33.2833C29.3141 33.2833 27.2621 28.4233 27.1181 24.4273ZM56.6955 17.6953H69.5115V21.5113H56.6955V28.7113H71.3835V32.5273H52.0875V7.32734H70.9875V11.1433H56.6955V17.6953ZM84.8509 27.2353L83.0149 32.5273H78.0829L87.5869 7.32734H92.1949L101.699 32.5273H96.7669L94.9309 27.2353H84.8509ZM86.0749 23.4193H93.7069L89.8909 12.2233L86.0749 23.4193ZM103.551 7.32734H113.559C123.891 7.32734 125.727 14.4553 125.727 19.8553C125.727 31.2673 117.735 32.5273 112.659 32.5273H103.551V7.32734ZM108.159 11.1433V28.7113H112.443C114.675 28.7113 120.795 28.3513 120.795 19.9273C120.795 12.1513 115.935 11.1433 113.163 11.1433H108.159ZM146.718 23.9233H151.29C150.93 27.7393 148.914 33.2833 140.382 33.2833C138.438 33.2833 127.89 33.1033 127.89 20.3593C127.89 9.99134 133.866 6.57135 140.13 6.57135C148.77 6.57135 150.714 11.8633 150.93 15.4633H146.358C146.07 13.3753 144.846 10.3873 140.13 10.3873C134.514 10.3873 132.822 14.9593 132.822 20.1793C132.822 26.0833 136.062 29.4673 140.598 29.4673C144.774 29.4673 146.574 26.6233 146.718 23.9233Z" fill="#F6F3EE"/>
</svg>
