<svg width="1359" height="154" viewBox="0 0 1359 154" fill="none" xmlns="http://www.w3.org/2000/svg">
<rect x="2" y="2" width="1355" height="150" rx="18" fill="white" stroke="#242A36" stroke-width="4"/>
<rect x="408" width="951" height="154" rx="20" fill="#242A36"/>
<rect x="815" width="544" height="154" rx="20" fill="#E94E1B"/>
<rect x="1155" width="204" height="154" rx="20" fill="#74C0BF"/>
<path d="M31.16 34.16V42.56H39.76C42.56 42.56 49.12 43 49.12 50.88C49.12 54.6 47.32 59 39.8 59H27.4V31H47.28V34.16H31.16ZM31.16 45.72V55.84H39C42 55.84 45.28 54.96 45.28 50.92C45.28 46.44 41.72 45.72 39 45.72H31.16ZM67.0388 53.12H70.3987C69.8787 56 67.7588 59.8 61.5187 59.8C51.4387 59.8 51.2387 50.76 51.2387 48.92C51.2387 46.12 51.7587 37.88 61.1587 37.88C69.2787 37.88 70.3588 44.24 70.5588 48.64C70.5588 48.96 70.5987 49.32 70.5987 49.64H54.9587C54.9587 53.12 56.7587 57.32 61.3988 57.32C64.7988 57.32 66.5987 55.36 67.0388 53.12ZM54.9587 47.16H66.8787C66.7588 44.44 65.8388 40.36 61.2387 40.36C56.0387 40.36 54.9587 44.6 54.9587 47.16ZM71.6512 59V56.4C76.4512 57.36 76.5312 51.12 76.5312 46.32V38.68H90.6112V59H87.0912V41.16H79.8112V46.32C79.8112 53.4 79.1712 60.4 71.6512 59ZM95.155 38.68H98.675V46.72H103.795C106.635 46.72 111.955 47 111.955 52.92C111.955 55.96 110.435 59 104.995 59H95.155V38.68ZM98.675 49.2V56.52H103.595C105.315 56.52 108.315 56.08 108.315 52.68C108.315 49.16 105.195 49.2 102.955 49.2H98.675ZM114.435 38.68H117.955V59H114.435V38.68ZM126.03 54.88L136.63 38.68H140.55V59H137.03V42.76L126.47 59H122.51V38.68H126.03V54.88ZM135.31 31H138.31C137.99 32.72 136.87 35.52 133.03 36.16C132.51 36.24 131.95 36.28 131.43 36.28C127.43 36.28 125.59 34.32 124.83 32.08C124.71 31.72 124.67 31.36 124.55 31H127.55C127.51 31.32 127.51 32.12 128.27 32.96C128.67 33.4 129.15 33.72 129.67 33.92C130.27 34.12 130.83 34.16 131.43 34.16C133.55 34.16 135.43 33.04 135.31 31Z" fill="#242A36"/>
<path d="M32.472 95.112H24.552V93.216L32.448 82.2H34.728V93.216H37.368V95.112H34.728V99H32.472V95.112ZM26.712 93.216H32.472V85.152L26.712 93.216ZM44.1619 99.504C42.9139 99.504 38.2819 99.216 38.2819 90.6C38.2819 81.984 42.9139 81.696 44.1619 81.696C45.4099 81.696 50.0419 81.984 50.0419 90.6C50.0419 99.216 45.4099 99.504 44.1619 99.504ZM44.1619 97.608C46.8499 97.608 47.8099 94.416 47.8099 90.6C47.8099 86.784 46.8499 83.592 44.1619 83.592C41.4739 83.592 40.5139 86.784 40.5139 90.6C40.5139 94.416 41.4739 97.608 44.1619 97.608ZM55.0837 99L65.9798 82.2H67.6838L56.7877 99H55.0837ZM51.6757 86.808C51.6757 82.848 54.3157 82.008 55.6117 82.008C56.9078 82.008 59.5477 82.848 59.5477 86.808C59.5477 88.536 58.8038 91.608 55.6117 91.608C52.4197 91.608 51.6757 88.536 51.6757 86.808ZM53.2117 86.808C53.2117 87.912 53.5237 90.336 55.6117 90.336C57.6997 90.336 58.0117 87.912 58.0117 86.808C58.0117 84.024 56.5717 83.28 55.6117 83.28C54.6517 83.28 53.2117 84.024 53.2117 86.808ZM63.1238 94.392C63.1238 90.432 65.7638 89.592 67.0597 89.592C68.3558 89.592 70.9958 90.432 70.9958 94.392C70.9958 96.12 70.2517 99.192 67.0597 99.192C63.8678 99.192 63.1238 96.12 63.1238 94.392ZM64.6598 94.392C64.6598 95.496 64.9718 97.92 67.0597 97.92C69.1477 97.92 69.4598 95.496 69.4598 94.392C69.4598 91.608 68.0198 90.864 67.0597 90.864C66.0998 90.864 64.6598 91.608 64.6598 94.392ZM33.048 124.76H31.416L32.04 120.728H28.608L27.984 124.76H26.352L26.976 120.728H23.76L24.072 118.688H27.288L27.96 114.392H24.744L25.056 112.352H28.272L28.896 108.344H30.528L29.904 112.352H33.336L33.96 108.344H35.592L34.968 112.352H38.184L37.872 114.392H34.656L33.984 118.688H37.2L36.888 120.728H33.672L33.048 124.76ZM32.352 118.688L33.024 114.392H29.592L28.92 118.688H32.352ZM41.4979 115.568H49.3939V117.464H41.4979V125H39.2419V108.2H50.5219V110.096H41.4979V115.568ZM54.4185 115.568H62.3145V117.464H54.4185V125H52.1625V108.2H63.4425V110.096H54.4185V115.568ZM67.3391 115.568H75.2351V117.464H67.3391V125H65.0831V108.2H76.3631V110.096H67.3391V115.568ZM80.2597 115.568H88.1557V117.464H80.2597V125H78.0037V108.2H89.2837V110.096H80.2597V115.568ZM93.1804 115.568H101.076V117.464H93.1804V125H90.9244V108.2H102.204V110.096H93.1804V115.568ZM106.101 115.568H113.997V117.464H106.101V125H103.845V108.2H115.125V110.096H106.101V115.568Z" fill="#242A36"/>
<path d="M440.472 95.112H432.552V93.216L440.448 82.2H442.728V93.216H445.368V95.112H442.728V99H440.472V95.112ZM434.712 93.216H440.472V85.152L434.712 93.216ZM452.162 99.504C450.914 99.504 446.282 99.216 446.282 90.6C446.282 81.984 450.914 81.696 452.162 81.696C453.41 81.696 458.042 81.984 458.042 90.6C458.042 99.216 453.41 99.504 452.162 99.504ZM452.162 97.608C454.85 97.608 455.81 94.416 455.81 90.6C455.81 86.784 454.85 83.592 452.162 83.592C449.474 83.592 448.514 86.784 448.514 90.6C448.514 94.416 449.474 97.608 452.162 97.608ZM463.084 99L473.98 82.2H475.684L464.788 99H463.084ZM459.676 86.808C459.676 82.848 462.316 82.008 463.612 82.008C464.908 82.008 467.548 82.848 467.548 86.808C467.548 88.536 466.804 91.608 463.612 91.608C460.42 91.608 459.676 88.536 459.676 86.808ZM461.212 86.808C461.212 87.912 461.524 90.336 463.612 90.336C465.7 90.336 466.012 87.912 466.012 86.808C466.012 84.024 464.572 83.28 463.612 83.28C462.652 83.28 461.212 84.024 461.212 86.808ZM471.124 94.392C471.124 90.432 473.764 89.592 475.06 89.592C476.356 89.592 478.996 90.432 478.996 94.392C478.996 96.12 478.252 99.192 475.06 99.192C471.868 99.192 471.124 96.12 471.124 94.392ZM472.66 94.392C472.66 95.496 472.972 97.92 475.06 97.92C477.148 97.92 477.46 95.496 477.46 94.392C477.46 91.608 476.02 90.864 475.06 90.864C474.1 90.864 472.66 91.608 472.66 94.392ZM441.048 124.76H439.416L440.04 120.728H436.608L435.984 124.76H434.352L434.976 120.728H431.76L432.072 118.688H435.288L435.96 114.392H432.744L433.056 112.352H436.272L436.896 108.344H438.528L437.904 112.352H441.336L441.96 108.344H443.592L442.968 112.352H446.184L445.872 114.392H442.656L441.984 118.688H445.2L444.888 120.728H441.672L441.048 124.76ZM440.352 118.688L441.024 114.392H437.592L436.92 118.688H440.352ZM457.946 123.104V125H446.57C446.57 120.944 448.97 119.408 452.258 117.344C453.65 116.456 455.69 115.4 455.69 112.808C455.69 110.696 454.322 109.592 452.306 109.592C450.17 109.592 448.826 110.912 448.826 112.928V113.552H446.618V113.048C446.618 111.536 447.266 107.696 452.378 107.696C455.81 107.696 457.994 109.592 457.994 112.784C457.994 115.952 456.506 116.936 452.594 119.432C450.314 120.872 449.378 121.88 449.066 123.104H457.946ZM466.876 121.112H458.956V119.216L466.852 108.2H469.132V119.216H471.772V121.112H469.132V125H466.876V121.112ZM461.116 119.216H466.876V111.152L461.116 119.216ZM484.35 123.104V125H472.974C472.974 120.944 475.374 119.408 478.662 117.344C480.054 116.456 482.094 115.4 482.094 112.808C482.094 110.696 480.726 109.592 478.71 109.592C476.574 109.592 475.23 110.912 475.23 112.928V113.552H473.022V113.048C473.022 111.536 473.67 107.696 478.782 107.696C482.214 107.696 484.398 109.592 484.398 112.784C484.398 115.952 482.91 116.936 478.998 119.432C476.718 120.872 475.782 121.88 475.47 123.104H484.35ZM488.719 120.656L487.135 125H484.711L491.071 108.2H493.471L499.832 125H497.407L495.823 120.656H488.719ZM489.343 118.76H495.199L492.271 110.48L489.343 118.76ZM499.977 119.888H502.137C502.161 120.08 502.185 120.248 502.209 120.44C502.329 121.232 502.737 123.704 505.713 123.704C509.193 123.704 509.529 121.208 509.529 120.152C509.529 118.304 508.353 117.128 506.457 117.128H504.729V115.304H505.401C506.121 115.304 509.073 115.28 509.073 112.4C509.073 111.056 508.401 109.496 505.761 109.496C504.969 109.496 502.497 109.592 502.497 113.312H500.409C500.409 111.848 500.673 107.696 505.833 107.696C510.513 107.696 511.161 110.984 511.161 112.304C511.161 114.152 510.033 115.568 508.401 116.024V116.072C510.105 116.312 511.641 117.776 511.641 120.32C511.641 123.608 509.193 125.504 505.857 125.504C500.985 125.504 500.049 122.12 499.977 119.888ZM524.819 111.896H522.803C522.227 109.496 520.283 109.496 519.587 109.496C516.059 109.496 515.507 113.096 515.507 115.712H515.555C516.539 114.392 518.123 113.936 519.659 113.936C522.731 113.936 525.059 116.024 525.059 119.576C525.059 123.056 522.947 125.504 519.299 125.504C515.579 125.504 513.275 123.56 513.275 116.816C513.275 107.816 518.123 107.696 519.611 107.696C520.547 107.696 524.123 107.816 524.819 111.896ZM515.651 119.624C515.651 121.712 516.827 123.704 519.395 123.704C521.867 123.704 522.899 121.664 522.899 119.552C522.899 117.512 521.747 115.736 519.347 115.736C516.971 115.736 515.651 117.32 515.651 119.624Z" fill="white"/>
<path d="M851.744 97.104V99H840.368C840.368 94.944 842.768 93.408 846.056 91.344C847.448 90.456 849.488 89.4 849.488 86.808C849.488 84.696 848.12 83.592 846.104 83.592C843.968 83.592 842.624 84.912 842.624 86.928V87.552H840.416V87.048C840.416 85.536 841.064 81.696 846.176 81.696C849.608 81.696 851.792 83.592 851.792 86.784C851.792 89.952 850.304 90.936 846.392 93.432C844.112 94.872 843.176 95.88 842.864 97.104H851.744ZM853.306 94.704H855.514C855.634 95.808 856.378 97.704 858.97 97.704C860.098 97.704 862.882 97.488 862.882 93.552C862.882 90.576 861.01 89.592 859.186 89.592C858.082 89.592 856.474 90.096 855.898 91.056H853.786L854.962 82.2H864.034V84.096H856.618L855.946 89.064C857.002 88.128 858.202 87.792 859.738 87.792C862.834 87.792 864.994 89.952 864.994 93.528C864.994 96.888 863.122 99.504 858.97 99.504C854.65 99.504 853.498 96.624 853.306 94.704ZM870.084 99L880.98 82.2H882.684L871.788 99H870.084ZM866.676 86.808C866.676 82.848 869.316 82.008 870.612 82.008C871.908 82.008 874.548 82.848 874.548 86.808C874.548 88.536 873.804 91.608 870.612 91.608C867.42 91.608 866.676 88.536 866.676 86.808ZM868.212 86.808C868.212 87.912 868.524 90.336 870.612 90.336C872.7 90.336 873.012 87.912 873.012 86.808C873.012 84.024 871.572 83.28 870.612 83.28C869.652 83.28 868.212 84.024 868.212 86.808ZM878.124 94.392C878.124 90.432 880.764 89.592 882.06 89.592C883.356 89.592 885.996 90.432 885.996 94.392C885.996 96.12 885.252 99.192 882.06 99.192C878.868 99.192 878.124 96.12 878.124 94.392ZM879.66 94.392C879.66 95.496 879.972 97.92 882.06 97.92C884.148 97.92 884.46 95.496 884.46 94.392C884.46 91.608 883.02 90.864 882.06 90.864C881.1 90.864 879.66 91.608 879.66 94.392ZM848.048 124.76H846.416L847.04 120.728H843.608L842.984 124.76H841.352L841.976 120.728H838.76L839.072 118.688H842.288L842.96 114.392H839.744L840.056 112.352H843.272L843.896 108.344H845.528L844.904 112.352H848.336L848.96 108.344H850.592L849.968 112.352H853.184L852.872 114.392H849.656L848.984 118.688H852.2L851.888 120.728H848.672L848.048 124.76ZM847.352 118.688L848.024 114.392H844.592L843.92 118.688H847.352ZM856.498 115.376H865.306V117.272H856.498V123.104H866.482V125H854.242V108.2H866.218V110.096H856.498V115.376ZM867.473 121.304H869.489C870.065 123.704 871.985 123.704 872.705 123.704C876.233 123.704 876.785 120.128 876.785 117.488H876.737C875.753 118.808 874.169 119.264 872.633 119.264C869.561 119.264 867.233 117.176 867.233 113.624C867.233 110.144 869.345 107.696 872.993 107.696C875.873 107.696 879.017 108.728 879.017 116.384C879.017 124.376 875.297 125.504 872.681 125.504C871.745 125.504 868.169 125.384 867.473 121.304ZM876.641 113.576C876.641 111.488 875.465 109.496 872.897 109.496C870.425 109.496 869.393 111.536 869.393 113.648C869.393 115.712 870.545 117.464 872.945 117.464C875.321 117.464 876.641 115.88 876.641 113.576ZM887.851 121.112H879.931V119.216L887.827 108.2H890.107V119.216H892.747V121.112H890.107V125H887.851V121.112ZM882.091 119.216H887.851V111.152L882.091 119.216ZM896.877 115.376H905.685V117.272H896.877V123.104H906.861V125H894.621V108.2H906.597V110.096H896.877V115.376ZM909.676 112.376V111.2H910.18C912.22 111.2 913.924 110.024 914.188 108.2H915.772V125H913.516V112.376H909.676ZM921.798 108.2H929.166C933.246 108.2 934.182 110.504 934.182 112.472C934.182 114.272 932.958 115.832 931.374 116.072V116.144C932.766 116.384 934.902 117.32 934.902 120.32C934.902 122.72 933.678 125 928.902 125H921.798V108.2ZM924.054 110.096V115.328H928.59C931.062 115.328 931.878 114.104 931.878 112.712C931.878 111.752 931.47 110.096 928.662 110.096H924.054ZM924.054 117.224V123.104H928.734C930.294 123.104 932.598 122.864 932.598 120.128C932.598 117.968 931.086 117.224 928.734 117.224H924.054Z" fill="white"/>
<path d="M1182.12 86.376V85.2H1182.62C1184.66 85.2 1186.37 84.024 1186.63 82.2H1188.22V99H1185.96V86.376H1182.12ZM1191.69 94.704H1193.9C1194.02 95.808 1194.76 97.704 1197.35 97.704C1198.48 97.704 1201.26 97.488 1201.26 93.552C1201.26 90.576 1199.39 89.592 1197.57 89.592C1196.46 89.592 1194.86 90.096 1194.28 91.056H1192.17L1193.34 82.2H1202.42V84.096H1195L1194.33 89.064C1195.38 88.128 1196.58 87.792 1198.12 87.792C1201.22 87.792 1203.38 89.952 1203.38 93.528C1203.38 96.888 1201.5 99.504 1197.35 99.504C1193.03 99.504 1191.88 96.624 1191.69 94.704ZM1208.47 99L1219.36 82.2H1221.07L1210.17 99H1208.47ZM1205.06 86.808C1205.06 82.848 1207.7 82.008 1208.99 82.008C1210.29 82.008 1212.93 82.848 1212.93 86.808C1212.93 88.536 1212.19 91.608 1208.99 91.608C1205.8 91.608 1205.06 88.536 1205.06 86.808ZM1206.59 86.808C1206.59 87.912 1206.91 90.336 1208.99 90.336C1211.08 90.336 1211.39 87.912 1211.39 86.808C1211.39 84.024 1209.95 83.28 1208.99 83.28C1208.03 83.28 1206.59 84.024 1206.59 86.808ZM1216.51 94.392C1216.51 90.432 1219.15 89.592 1220.44 89.592C1221.74 89.592 1224.38 90.432 1224.38 94.392C1224.38 96.12 1223.63 99.192 1220.44 99.192C1217.25 99.192 1216.51 96.12 1216.51 94.392ZM1218.04 94.392C1218.04 95.496 1218.35 97.92 1220.44 97.92C1222.53 97.92 1222.84 95.496 1222.84 94.392C1222.84 91.608 1221.4 90.864 1220.44 90.864C1219.48 90.864 1218.04 91.608 1218.04 94.392ZM1188.05 124.76H1186.42L1187.04 120.728H1183.61L1182.98 124.76H1181.35L1181.98 120.728H1178.76L1179.07 118.688H1182.29L1182.96 114.392H1179.74L1180.06 112.352H1183.27L1183.9 108.344H1185.53L1184.9 112.352H1188.34L1188.96 108.344H1190.59L1189.97 112.352H1193.18L1192.87 114.392H1189.66L1188.98 118.688H1192.2L1191.89 120.728H1188.67L1188.05 124.76ZM1187.35 118.688L1188.02 114.392H1184.59L1183.92 118.688H1187.35ZM1193.02 110.096V108.2H1205.28V109.736C1203.05 112.232 1201.78 114.44 1200.63 117.272C1199.55 119.864 1199.09 122 1198.78 125H1196.38C1196.69 122.576 1197.24 120.176 1198.39 117.464C1199.43 115.088 1201.03 112.328 1203.07 110.096H1193.02ZM1212.26 121.112H1204.34V119.216L1212.23 108.2H1214.51V119.216H1217.15V121.112H1214.51V125H1212.26V121.112ZM1206.5 119.216H1212.26V111.152L1206.5 119.216ZM1230.91 119.432H1233.16C1232.85 121.832 1231.46 125.504 1226.06 125.504C1221.07 125.504 1218.07 122.264 1218.07 116.888C1218.07 107.96 1224.57 107.696 1225.99 107.696C1231.34 107.696 1232.68 110.816 1232.95 113.384H1230.69C1230.57 112.16 1229.83 109.592 1225.99 109.592C1221.79 109.592 1220.47 113.144 1220.47 116.792C1220.47 120.704 1222.6 123.608 1226.16 123.608C1228.84 123.608 1230.79 121.832 1230.91 119.432ZM1240.31 125.504C1239.07 125.504 1234.43 125.216 1234.43 116.6C1234.43 107.984 1239.07 107.696 1240.31 107.696C1241.56 107.696 1246.19 107.984 1246.19 116.6C1246.19 125.216 1241.56 125.504 1240.31 125.504ZM1240.31 123.608C1243 123.608 1243.96 120.416 1243.96 116.6C1243.96 112.784 1243 109.592 1240.31 109.592C1237.63 109.592 1236.67 112.784 1236.67 116.6C1236.67 120.416 1237.63 123.608 1240.31 123.608ZM1248.6 108.2H1255.96C1260.04 108.2 1260.98 110.504 1260.98 112.472C1260.98 114.272 1259.76 115.832 1258.17 116.072V116.144C1259.56 116.384 1261.7 117.32 1261.7 120.32C1261.7 122.72 1260.48 125 1255.7 125H1248.6V108.2ZM1250.85 110.096V115.328H1255.39C1257.86 115.328 1258.68 114.104 1258.68 112.712C1258.68 111.752 1258.27 110.096 1255.46 110.096H1250.85ZM1250.85 117.224V123.104H1255.53C1257.09 123.104 1259.4 122.864 1259.4 120.128C1259.4 117.968 1257.88 117.224 1255.53 117.224H1250.85ZM1266.68 115.568H1274.58V117.464H1266.68V125H1264.42V108.2H1275.7V110.096H1266.68V115.568Z" fill="#242A36"/>
<path d="M434.32 31H438.08V39.2C438.08 43.52 440.32 43.96 444.84 43.96C446.44 43.96 448.96 43.8 450.28 43.68V31H454.04V59H450.28V46.84C448.8 46.96 445.64 47.12 444.12 47.12C437.24 47.12 434.32 45.8 434.32 39.8V31ZM473.75 53.12H477.11C476.59 56 474.47 59.8 468.23 59.8C458.15 59.8 457.95 50.76 457.95 48.92C457.95 46.12 458.47 37.88 467.87 37.88C475.99 37.88 477.07 44.24 477.27 48.64C477.27 48.96 477.31 49.32 477.31 49.64H461.67C461.67 53.12 463.47 57.32 468.11 57.32C471.51 57.32 473.31 55.36 473.75 53.12ZM461.67 47.16H473.59C473.47 44.44 472.55 40.36 467.95 40.36C462.75 40.36 461.67 44.6 461.67 47.16ZM480.722 38.68H484.002V41.48H484.122C486.162 38.4 489.082 37.88 490.842 37.88C495.842 37.88 500.002 41.24 500.002 48.84C500.002 56.72 495.562 59.8 490.922 59.8C490.122 59.8 486.042 59.6 484.242 56.08V66.4H480.722V38.68ZM484.002 48.92C484.002 55.2 487.602 57.32 490.282 57.32C493.122 57.32 496.282 55.32 496.282 48.84C496.282 43.6 494.082 40.36 490.082 40.36C488.282 40.36 484.002 41.24 484.002 48.92ZM506.909 49.52V59H503.389V38.68H506.909V47.04H516.949V38.68H520.469V59H516.949V49.52H506.909ZM525.041 38.68H528.561V46.72H533.681C536.521 46.72 541.841 47 541.841 52.92C541.841 55.96 540.321 59 534.881 59H525.041V38.68ZM528.561 49.2V56.52H533.481C535.201 56.52 538.201 56.08 538.201 52.68C538.201 49.16 535.081 49.2 532.841 49.2H528.561ZM544.321 38.68H547.841V59H544.321V38.68ZM555.916 54.88L566.516 38.68H570.436V59H566.916V42.76L556.356 59H552.396V38.68H555.916V54.88ZM565.196 31H568.196C567.876 32.72 566.756 35.52 562.916 36.16C562.396 36.24 561.836 36.28 561.316 36.28C557.316 36.28 555.476 34.32 554.716 32.08C554.596 31.72 554.556 31.36 554.436 31H557.436C557.396 31.32 557.396 32.12 558.156 32.96C558.556 33.4 559.036 33.72 559.556 33.92C560.156 34.12 560.716 34.16 561.316 34.16C563.436 34.16 565.316 33.04 565.196 31Z" fill="white"/>
<path d="M862.2 49.72H865.96C865.44 53.72 863.12 59.84 854.12 59.84C845.8 59.84 840.8 54.44 840.8 45.48C840.8 30.6 851.64 30.16 854 30.16C862.92 30.16 865.16 35.36 865.6 39.64H861.84C861.64 37.6 860.4 33.32 854 33.32C847 33.32 844.8 39.24 844.8 45.32C844.8 51.84 848.36 56.68 854.28 56.68C858.76 56.68 862 53.72 862.2 49.72ZM873.837 41.16H866.797V38.68H884.397V41.16H877.357V59H873.837V41.16ZM889.269 44.68H885.909C885.909 41.96 887.349 37.88 894.549 37.88C897.829 37.88 902.749 38.8 902.629 44.72L902.429 54.12C902.429 55.68 902.389 56.64 904.549 56.52V59C904.069 59.12 903.709 59.16 902.949 59.16C900.949 59.16 899.749 58.84 899.309 56.2C897.909 58.76 895.109 59.8 892.349 59.8C888.069 59.8 885.189 57.96 885.189 53.68C885.189 50.16 886.989 48 895.149 47.24C898.149 47.04 899.109 47.08 899.109 44.44C899.109 43.48 899.029 40.36 894.549 40.36C893.269 40.36 889.149 40.44 889.269 44.68ZM899.029 50.32L899.109 48.6C898.069 49.44 896.869 49.28 894.629 49.6C891.509 50.12 888.829 50.28 888.829 53.56C888.829 55.96 890.469 57.32 892.749 57.32C895.509 57.32 898.709 55.96 899.029 50.32ZM907.499 38.68H910.779V41.48H910.899C912.939 38.4 915.859 37.88 917.619 37.88C922.619 37.88 926.779 41.24 926.779 48.84C926.779 56.72 922.339 59.8 917.699 59.8C916.899 59.8 912.819 59.6 911.019 56.08V66.4H907.499V38.68ZM910.779 48.92C910.779 55.2 914.379 57.32 917.059 57.32C919.899 57.32 923.059 55.32 923.059 48.84C923.059 43.6 920.859 40.36 916.859 40.36C915.059 40.36 910.779 41.24 910.779 48.92ZM929.006 48.84C929.006 43.44 931.606 37.88 939.006 37.88C946.406 37.88 949.006 43.44 949.006 48.84C949.006 54.24 946.406 59.8 939.006 59.8C931.606 59.8 929.006 54.24 929.006 48.84ZM932.726 48.8C932.726 56.96 937.446 57.32 939.006 57.32C940.566 57.32 945.286 56.96 945.286 48.8C945.286 40.64 940.566 40.28 939.006 40.28C937.446 40.28 932.726 40.64 932.726 48.8ZM967.043 53.12H970.403C969.883 56 967.763 59.8 961.523 59.8C951.443 59.8 951.243 50.76 951.243 48.92C951.243 46.12 951.763 37.88 961.163 37.88C969.283 37.88 970.363 44.24 970.563 48.64C970.563 48.96 970.603 49.32 970.603 49.64H954.963C954.963 53.12 956.763 57.32 961.403 57.32C964.803 57.32 966.603 55.36 967.043 53.12ZM954.963 47.16H966.883C966.763 44.44 965.843 40.36 961.243 40.36C956.043 40.36 954.963 44.6 954.963 47.16Z" fill="white"/>
<path d="M1186.16 45.84V59H1182.4V31H1186.16V42.68H1200.24V31H1204V59H1200.24V45.84H1186.16ZM1207.92 48.84C1207.92 43.44 1210.52 37.88 1217.92 37.88C1225.32 37.88 1227.92 43.44 1227.92 48.84C1227.92 54.24 1225.32 59.8 1217.92 59.8C1210.52 59.8 1207.92 54.24 1207.92 48.84ZM1211.64 48.8C1211.64 56.96 1216.36 57.32 1217.92 57.32C1219.48 57.32 1224.2 56.96 1224.2 48.8C1224.2 40.64 1219.48 40.28 1217.92 40.28C1216.36 40.28 1211.64 40.64 1211.64 48.8ZM1231.32 38.68H1241C1243.04 38.68 1247.44 38.88 1247.44 43.52C1247.44 47.16 1244.44 48.04 1243.76 48.28V48.4C1247.72 49.36 1248.2 51.76 1248.2 53.72C1248.2 58.36 1244.2 59 1240.88 59H1231.32V38.68ZM1234.84 41.16V47.16H1239.72C1243.04 47.16 1243.88 45.44 1243.88 44.04C1243.88 41.32 1241.32 41.16 1239.88 41.16H1234.84ZM1234.84 49.64V56.52H1240C1241.2 56.52 1244.56 56.44 1244.56 53.4C1244.56 49.88 1241.44 49.64 1239.88 49.64H1234.84ZM1250.52 48.84C1250.52 43.44 1253.12 37.88 1260.52 37.88C1267.92 37.88 1270.52 43.44 1270.52 48.84C1270.52 54.24 1267.92 59.8 1260.52 59.8C1253.12 59.8 1250.52 54.24 1250.52 48.84ZM1254.24 48.8C1254.24 56.96 1258.96 57.32 1260.52 57.32C1262.08 57.32 1266.8 56.96 1266.8 48.8C1266.8 40.64 1262.08 40.28 1260.52 40.28C1258.96 40.28 1254.24 40.64 1254.24 48.8ZM1288.56 53.12H1291.92C1291.4 56 1289.28 59.8 1283.04 59.8C1272.96 59.8 1272.76 50.76 1272.76 48.92C1272.76 46.12 1273.28 37.88 1282.68 37.88C1290.8 37.88 1291.88 44.24 1292.08 48.64C1292.08 48.96 1292.12 49.32 1292.12 49.64H1276.48C1276.48 53.12 1278.28 57.32 1282.92 57.32C1286.32 57.32 1288.12 55.36 1288.56 53.12ZM1276.48 47.16H1288.4C1288.28 44.44 1287.36 40.36 1282.76 40.36C1277.56 40.36 1276.48 44.6 1276.48 47.16Z" fill="#242A36"/>
</svg>
