<svg width="1440" height="1595" viewBox="0 0 1440 1595" fill="none" xmlns="http://www.w3.org/2000/svg">
<path fill-rule="evenodd" clip-rule="evenodd" d="M-744.925 495.463C-719.326 220.51 -475.68 18.3681 -200.727 43.9672C-6.54251 62.0464 137.114 88.4639 253.715 110.041C370.283 131.612 445.613 145.339 537.458 151.563C718.704 163.844 1004.65 148.745 1692.49 10.6504C1963.23 -43.7044 2226.77 131.71 2281.13 402.45C2335.48 673.19 2160.07 1376.73 1889.33 1431.09C1179.23 1573.65 787.469 1610.8 469.852 1589.27C318.096 1578.99 192.488 1555.72 84.1667 1535.64C80.0041 1534.87 75.8672 1534.11 71.7552 1533.35C-39.3292 1512.79 -146.325 1493.36 -293.429 1479.66C-568.383 1454.06 -770.524 770.416 -744.925 495.463Z" fill="#242A36"/>
</svg>
